<svg width="331" height="410" viewBox="0 0 331 410" fill="none" xmlns="http://www.w3.org/2000/svg">
<path d="M207.25 173.799L208.549 173.049L209.848 173.799L209.848 175.299L208.549 176.049L207.25 175.299L207.25 173.799Z" fill="#F2F2F2" stroke="#F2F2F2" stroke-width="5"/>
<circle cx="208.5" cy="174.5" r="11" stroke="#F2F2F2" stroke-width="5"/>
<circle cx="208.5" cy="174.5" r="23" stroke="#F2F2F2" stroke-width="5"/>
<path d="M224.111 34.2229C246.857 91.8403 251.096 137.872 251.096 165.388C251.096 192.904 270.637 204.593 266.398 220.419C264.126 228.902 251.096 248.969 241.584 248.969C203 248.969 195.871 248.013 169.625 259.624C143.629 271.124 136.85 293.071 113.587 305.139C94.532 315.024 82.9835 322 61.2715 322C48.9018 322 20.1651 321.482 16.2967 308.759C8.27674 282.381 39.0426 254.348 64.9936 237.384C105.109 211.16 109.604 187.628 113.587 165.388C117.57 143.148 102.007 81.2893 102.007 81.2893C102.007 77.8075 106.403 73.3473 113.587 68.5578M224.111 34.2229C200.601 30.1003 139.272 51.4338 113.587 68.5578M224.111 34.2229C224.111 34.2229 211.492 18.321 194.025 15.7066C160.113 10.6308 117.737 34.2229 113.587 44.2567C109.437 54.2905 113.587 68.5578 113.587 68.5578" stroke="#F2F2F2" stroke-width="5" stroke-linecap="round"/>
<path d="M66.8808 305.288C65.1312 300.868 65.8614 299.446 66.7228 298.667C74.7622 291.402 84.2772 285.541 94.0678 275.19C98.8632 270.12 101.573 265.303 107.449 264.107C111.604 263.261 113.984 263.225 117.712 265.259C122.238 267.729 125.714 272.33 125.628 275.759C125.542 279.188 122.414 283.367 118.515 285.906C108.611 292.358 86.8428 305.659 71.9911 308.683C69.3798 309.214 67.5682 307.024 66.8808 305.288Z" stroke="#F2F2F2" stroke-width="5"/>
<path d="M251 154.761C245.366 161.296 239.85 179.761 238.042 189.136C236.235 198.512 227.76 213 213.817 213C195.789 213 189.028 204.477 177.479 187.148C172.127 179.117 153.254 138 111 138" stroke="#F2F2F2" stroke-width="5"/>
<path d="M85.2227 360.86C84.6784 361.084 84.1135 361.05 83.5082 361.046C83.5082 361.046 82.677 361.095 82.5424 360.491C81.115 354.088 76.4319 352.255 73.7885 351.724C72.6755 351.5 71.5796 351.099 70.8902 350.197C70.258 349.369 69.6944 348.47 69.6945 348.202C69.6946 347.763 69.8896 347.173 70.4445 347.173C81.3086 347.173 85.5654 355.225 86.5101 359.221C86.6946 360.001 85.9922 360.544 85.2227 360.86Z" stroke="#F2F2F2"/>
<path d="M62.7083 351.513C63.1737 351.873 63.426 352.38 63.7241 352.906C63.7241 352.906 64.1805 353.603 63.7243 354.02C58.8841 358.449 59.6294 363.423 60.4865 365.979C60.8474 367.055 61.0452 368.206 60.6067 369.253C60.2047 370.213 59.7062 371.15 59.4734 371.284C59.0926 371.503 58.4845 371.627 58.2079 371.146C52.7933 361.728 57.6525 354.024 60.6452 351.214C61.2295 350.665 62.0505 351.003 62.7083 351.513Z" stroke="#F2F2F2"/>
<path d="M65.7213 375.661C65.806 375.079 66.1227 374.61 66.4346 374.091C66.4346 374.091 66.8162 373.351 67.4041 373.542C73.6419 375.576 77.6042 372.479 79.4077 370.475C80.1671 369.631 81.0711 368.893 82.1985 368.759C83.2324 368.636 84.2931 368.609 84.5241 368.746C84.902 368.97 85.3098 369.438 85.0272 369.916C79.4932 379.265 70.3957 378.826 66.4765 377.604C65.7113 377.365 65.6016 376.484 65.7213 375.661Z" stroke="#F2F2F2"/>
<circle cx="71.5" cy="362.5" r="32.5" stroke="#F2F2F2" stroke-width="5"/>
<circle cx="71.2072" cy="362.695" r="21.5315" stroke="#F2F2F2" stroke-width="5"/>
<path d="M61.2522 372.309C60.7555 373.213 60.8995 374.373 61.789 374.895C62.688 375.423 63.7969 374.963 64.3266 374.065C64.8716 373.141 64.6924 371.877 63.741 371.382C62.8211 370.902 61.7517 371.4 61.2522 372.309Z" stroke="#F2F2F2"/>
<path d="M84.4797 362.922C83.4482 362.914 82.4958 363.591 82.4582 364.622C82.4203 365.664 83.3512 366.422 84.393 366.461C85.465 366.503 86.4927 365.745 86.4772 364.672C86.4623 363.635 85.5169 362.93 84.4797 362.922Z" stroke="#F2F2F2"/>
<path d="M67.644 348.961C67.0016 348.154 65.876 347.84 65.0508 348.459C64.2168 349.084 64.2128 350.284 64.8368 351.12C65.479 351.979 66.7145 352.302 67.5388 351.615C68.3359 350.952 68.2898 349.773 67.644 348.961Z" stroke="#F2F2F2"/>
<path d="M156.456 341.152C155.868 341.177 155.349 340.952 154.781 340.741C154.781 340.741 153.983 340.502 154.063 339.889C154.912 333.383 151.138 330.06 148.836 328.657C147.867 328.066 146.974 327.313 146.635 326.23C146.324 325.236 146.102 324.199 146.194 323.947C146.344 323.534 146.729 323.047 147.25 323.237C157.459 326.952 158.705 335.975 158.227 340.052C158.133 340.848 157.287 341.118 156.456 341.152Z" stroke="#F2F2F2"/>
<path d="M138.496 324.668C138.81 325.166 138.874 325.728 138.974 326.325C138.974 326.325 139.165 327.136 138.593 327.372C132.53 329.879 131.53 334.807 131.461 337.502C131.432 338.637 131.224 339.786 130.454 340.62C129.748 341.385 128.959 342.095 128.694 342.141C128.262 342.216 127.648 342.125 127.552 341.578C125.686 330.876 132.887 325.299 136.66 323.682C137.397 323.366 138.052 323.965 138.496 324.668Z" stroke="#F2F2F2"/>
<path d="M133.068 348.391C133.347 347.872 133.805 347.54 134.276 347.159C134.276 347.159 134.887 346.594 135.374 346.976C140.54 351.02 145.323 349.465 147.703 348.199C148.705 347.666 149.807 347.281 150.913 347.541C151.926 347.779 152.932 348.116 153.102 348.324C153.381 348.664 153.604 349.243 153.175 349.595C144.777 356.487 136.378 352.964 133.114 350.475C132.476 349.989 132.674 349.124 133.068 348.391Z" stroke="#F2F2F2"/>
<circle cx="143" cy="338" r="32.5" transform="rotate(20 143 338)" stroke="#F2F2F2" stroke-width="5"/>
<circle cx="142.658" cy="338.083" r="21.5315" transform="rotate(20 142.658 338.083)" stroke="#F2F2F2" stroke-width="5"/>
<path d="M130.015 343.712C129.239 344.392 128.978 345.531 129.635 346.326C130.3 347.129 131.499 347.077 132.304 346.414C133.132 345.732 133.396 344.483 132.671 343.692C131.971 342.927 130.796 343.029 130.015 343.712Z" stroke="#F2F2F2"/>
<path d="M155.053 342.835C154.086 342.475 152.959 342.786 152.572 343.742C152.18 344.708 152.795 345.738 153.761 346.132C154.754 346.537 155.979 346.177 156.331 345.163C156.672 344.184 156.025 343.198 155.053 342.835Z" stroke="#F2F2F2"/>
<path d="M144.007 323.959C143.679 322.981 142.729 322.3 141.742 322.599C140.745 322.902 140.33 324.029 140.631 325.027C140.94 326.054 141.991 326.78 143.001 326.417C143.977 326.066 144.336 324.942 144.007 323.959Z" stroke="#F2F2F2"/>
<path d="M227.723 308.36C227.178 308.584 226.614 308.55 226.008 308.546C226.008 308.546 225.177 308.595 225.042 307.991C223.615 301.588 218.932 299.755 216.289 299.224C215.175 299 214.08 298.599 213.39 297.697C212.758 296.869 212.194 295.97 212.194 295.702C212.195 295.263 212.39 294.673 212.945 294.673C223.809 294.673 228.065 302.725 229.01 306.721C229.195 307.501 228.492 308.044 227.723 308.36Z" stroke="#F2F2F2"/>
<path d="M205.208 299.013C205.674 299.373 205.926 299.88 206.224 300.406C206.224 300.406 206.681 301.103 206.224 301.52C201.384 305.949 202.129 310.923 202.986 313.479C203.347 314.555 203.545 315.706 203.107 316.753C202.705 317.713 202.206 318.65 201.973 318.784C201.593 319.003 200.984 319.127 200.708 318.646C195.293 309.228 200.152 301.524 203.145 298.714C203.729 298.165 204.551 298.503 205.208 299.013Z" stroke="#F2F2F2"/>
<path d="M208.221 323.161C208.306 322.579 208.623 322.11 208.935 321.591C208.935 321.591 209.316 320.851 209.904 321.042C216.142 323.076 220.104 319.979 221.908 317.975C222.667 317.131 223.571 316.393 224.699 316.259C225.732 316.136 226.793 316.109 227.024 316.246C227.402 316.47 227.81 316.938 227.527 317.416C221.993 326.765 212.896 326.326 208.977 325.104C208.211 324.865 208.102 323.984 208.221 323.161Z" stroke="#F2F2F2"/>
<circle cx="214" cy="310" r="32.5" stroke="#F2F2F2" stroke-width="5"/>
<circle cx="213.707" cy="310.195" r="21.5315" stroke="#F2F2F2" stroke-width="5"/>
<path d="M203.752 319.809C203.255 320.713 203.4 321.873 204.289 322.395C205.188 322.923 206.297 322.463 206.827 321.565C207.372 320.641 207.192 319.377 206.241 318.882C205.321 318.402 204.252 318.9 203.752 319.809Z" stroke="#F2F2F2"/>
<path d="M226.98 310.422C225.948 310.414 224.996 311.091 224.958 312.122C224.92 313.164 225.851 313.922 226.893 313.961C227.965 314.003 228.993 313.245 228.977 312.172C228.962 311.135 228.017 310.43 226.98 310.422Z" stroke="#F2F2F2"/>
<path d="M210.144 296.461C209.502 295.654 208.376 295.34 207.551 295.959C206.717 296.584 206.713 297.784 207.337 298.62C207.979 299.479 209.214 299.802 210.039 299.115C210.836 298.452 210.79 297.273 210.144 296.461Z" stroke="#F2F2F2"/>
<path d="M288.941 268.796C288.863 269.379 288.551 269.852 288.245 270.374C288.245 270.374 287.872 271.118 287.282 270.933C281.022 268.967 277.094 272.106 275.312 274.13C274.562 274.982 273.666 275.73 272.54 275.876C271.507 276.01 270.447 276.049 270.215 275.915C269.834 275.695 269.421 275.231 269.699 274.751C275.131 265.342 284.233 265.682 288.165 266.861C288.933 267.091 289.052 267.971 288.941 268.796Z" stroke="#F2F2F2"/>
<path d="M269.589 283.62C270.134 283.397 270.698 283.432 271.304 283.437C271.304 283.437 272.135 283.39 272.268 283.994C273.684 290.4 278.364 292.241 281.006 292.777C282.119 293.003 283.214 293.407 283.902 294.31C284.532 295.139 285.094 296.039 285.094 296.307C285.093 296.746 284.897 297.335 284.342 297.334C273.478 297.314 269.236 289.254 268.298 285.257C268.115 284.477 268.819 283.935 269.589 283.62Z" stroke="#F2F2F2"/>
<path d="M292.008 293.085C291.546 292.72 291.299 292.212 291.005 291.682C291.005 291.682 290.555 290.982 291.015 290.568C295.895 286.183 295.195 281.203 294.361 278.639C294.009 277.56 293.822 276.408 294.27 275.364C294.681 274.408 295.187 273.475 295.421 273.344C295.804 273.128 296.413 273.009 296.686 273.493C302.015 282.96 297.087 290.619 294.069 293.402C293.48 293.946 292.662 293.6 292.008 293.085Z" stroke="#F2F2F2"/>
<circle cx="283.5" cy="281.5" r="32.5" transform="rotate(-60 283.5 281.5)" stroke="#F2F2F2" stroke-width="5"/>
<circle cx="283.523" cy="281.851" r="21.5315" transform="rotate(-60 283.523 281.851)" stroke="#F2F2F2" stroke-width="5"/>
<path d="M286.871 295.279C287.405 296.161 288.482 296.617 289.379 296.107C290.286 295.593 290.442 294.403 289.929 293.495C289.401 292.561 288.217 292.084 287.312 292.66C286.437 293.217 286.333 294.392 286.871 295.279Z" stroke="#F2F2F2"/>
<path d="M290.355 270.47C289.832 271.359 289.943 272.523 290.817 273.071C291.7 273.625 292.822 273.197 293.377 272.315C293.949 271.407 293.806 270.138 292.87 269.615C291.964 269.11 290.881 269.576 290.355 270.47Z" stroke="#F2F2F2"/>
<path d="M269.847 278.07C268.827 278.223 267.992 279.04 268.115 280.064C268.24 281.099 269.277 281.703 270.313 281.58C271.378 281.454 272.275 280.545 272.093 279.488C271.917 278.466 270.873 277.916 269.847 278.07Z" stroke="#F2F2F2"/>
<path fill-rule="evenodd" clip-rule="evenodd" d="M67.4369 373.263C63.6141 371.777 61.6341 367.952 60.2956 363.869C59.9482 362.809 60.0164 361.661 60.4321 360.626L75.5449 322.996L120.891 305.276L131.895 311.734C133.367 311.074 134.786 310.437 136.157 309.822C157.409 300.283 167.22 295.879 186.79 289.753C187.422 289.555 188.017 289.232 188.525 288.808C196.467 282.187 203.836 276.593 212.92 272.119C214.167 271.504 215.133 270.428 215.565 269.106L219.057 258.404L261.788 242.386L267.191 245.72C265.813 247.798 264.441 250.11 264.472 251.306C264.485 251.816 264.613 252.445 264.755 252.999C264.986 253.895 265.542 254.66 266.273 255.228C269.253 257.539 272.753 259.976 276.337 262.473C282.575 266.816 289.068 271.338 293.524 275.687C295.159 277.283 295.636 286.199 295.04 286.886C291.665 290.777 285.76 291.762 283.299 291.479C280.07 291.109 275.649 288.203 275.649 288.203L263.959 288.203C257.284 288.203 250.93 290.358 244.829 294.184C238.727 298.01 230.046 303.887 230.046 303.887C230.046 303.887 225.541 311.563 222.943 313.878C222.943 313.878 215.146 320.771 209.939 317.074C205.773 314.117 199.484 308.15 199.484 308.15C174.304 314.93 167.138 322.47 152.873 340.205C148.346 345.834 142.995 345.667 138.863 344.04C132.046 341.356 127.204 335.965 127.204 335.965C106.597 337.722 87.9416 355.162 80.1945 368.439C78.1962 371.863 71.7704 374.948 67.4369 373.263ZM230.462 276.712C229.789 276.223 229.156 275.571 229.137 274.839C229.074 272.389 230.541 265.854 231.729 264.352C232.917 262.85 237.752 260.025 252.571 255.845C254.83 255.208 256.08 256.978 257.14 258.588C257.802 259.592 257.32 262.78 256.287 265.148C255.159 267.735 252.937 270.006 251.52 270.583C244.517 273.44 241.938 274.394 233.835 277.048C232.698 277.42 231.43 277.415 230.462 276.712ZM195.856 294.597C194.6 296.686 195.856 299.024 198.445 299.842C199.585 300.202 200.539 300.515 201.363 300.785C204.859 301.931 205.994 302.303 208.935 302.227C210.979 302.175 215.433 300.294 216.428 299.378C221.221 294.963 225.242 290.73 225.936 287.643C226.999 282.915 224.164 281.449 221.499 281.186C215.554 280.599 200.847 286.295 195.856 294.597ZM131.856 328.229C130.62 326.79 130.734 324.376 131.735 323.533C142.942 314.09 149.825 311.42 160.566 307.669C161.975 307.177 166.424 310.174 162.794 314.763L162.499 315.135C158.936 319.641 154.815 324.853 150.247 327.754C148.638 328.777 145.589 329.509 139.894 330.678C135.277 331.625 131.856 328.229 131.856 328.229ZM80.679 341.907C80.679 341.907 80.737 344.153 83.8022 344.074C86.8673 343.994 96.565 339.453 96.565 339.453C96.565 339.453 104.989 333.106 107.535 328.75C108.122 327.745 108.158 326.086 107.429 324.666C106.59 323.033 105.175 322.068 103.478 322.112C100.822 322.181 85.8802 328.083 84.261 330.168C82.6419 332.253 80.5044 339.221 80.679 341.907Z" fill="black"/>
<path d="M60.2956 363.869L62.6713 363.09L62.6712 363.09L60.2956 363.869ZM67.4369 373.263L68.3426 370.933L68.3426 370.933L67.4369 373.263ZM60.4321 360.626L58.1122 359.694L58.1122 359.694L60.4321 360.626ZM75.5449 322.996L74.635 320.668L73.628 321.061L73.225 322.064L75.5449 322.996ZM120.891 305.276L122.156 303.12L121.11 302.506L119.981 302.947L120.891 305.276ZM131.895 311.734L130.629 313.89L131.741 314.543L132.917 314.015L131.895 311.734ZM136.157 309.822L135.133 307.541L135.133 307.541L136.157 309.822ZM186.79 289.753L186.043 287.367L186.043 287.367L186.79 289.753ZM188.525 288.808L190.126 290.728L190.126 290.728L188.525 288.808ZM212.92 272.119L211.815 269.876L211.815 269.876L212.92 272.119ZM215.565 269.106L217.941 269.882L217.941 269.882L215.565 269.106ZM219.057 258.404L218.179 256.063L217.053 256.485L216.68 257.629L219.057 258.404ZM261.788 242.386L263.101 240.258L262.058 239.615L260.911 240.045L261.788 242.386ZM267.191 245.72L269.274 247.101L270.701 244.948L268.503 243.592L267.191 245.72ZM264.472 251.306L266.971 251.242L266.971 251.242L264.472 251.306ZM264.755 252.999L262.334 253.621L262.334 253.621L264.755 252.999ZM266.273 255.228L267.806 253.252L267.806 253.252L266.273 255.228ZM276.337 262.473L277.766 260.421L277.766 260.421L276.337 262.473ZM293.524 275.687L295.27 273.898L295.27 273.898L293.524 275.687ZM295.04 286.886L293.152 285.247L293.152 285.247L295.04 286.886ZM283.299 291.479L283.014 293.963L283.014 293.963L283.299 291.479ZM275.649 288.203L277.022 286.114L276.397 285.703L275.649 285.703L275.649 288.203ZM263.959 288.203L263.959 285.703H263.959V288.203ZM244.829 294.184L243.5 292.066L243.5 292.066L244.829 294.184ZM230.046 303.887L228.645 301.817L228.176 302.134L227.89 302.622L230.046 303.887ZM222.943 313.878L224.599 315.751L224.606 315.745L222.943 313.878ZM209.939 317.074L211.386 315.036L211.386 315.036L209.939 317.074ZM199.484 308.15L201.205 306.336L200.188 305.371L198.834 305.736L199.484 308.15ZM152.873 340.205L150.925 338.638L150.925 338.638L152.873 340.205ZM138.863 344.04L137.947 346.367L137.947 346.367L138.863 344.04ZM127.204 335.965L129.064 334.294L128.232 333.368L126.991 333.474L127.204 335.965ZM80.1945 368.439L78.0352 367.179L78.0352 367.179L80.1945 368.439ZM229.137 274.839L231.637 274.774L231.637 274.774L229.137 274.839ZM230.462 276.712L228.993 278.735L228.993 278.735L230.462 276.712ZM231.729 264.352L229.769 262.801L229.769 262.801L231.729 264.352ZM252.571 255.845L253.249 258.251L253.249 258.251L252.571 255.845ZM257.14 258.588L259.228 257.213L259.228 257.213L257.14 258.588ZM256.287 265.148L253.996 264.149L253.996 264.149L256.287 265.148ZM251.52 270.583L252.464 272.898L252.464 272.898L251.52 270.583ZM233.835 277.048L233.057 274.672L233.057 274.672L233.835 277.048ZM198.445 299.842L197.692 302.226L197.692 302.226L198.445 299.842ZM195.856 294.597L197.999 295.885L197.999 295.885L195.856 294.597ZM201.363 300.785L200.584 303.161L200.584 303.161L201.363 300.785ZM208.935 302.227L208.871 299.728L208.871 299.728L208.935 302.227ZM216.428 299.378L214.734 297.539L214.734 297.539L216.428 299.378ZM225.936 287.643L223.497 287.095L223.497 287.095L225.936 287.643ZM221.499 281.186L221.253 283.674L221.253 283.674L221.499 281.186ZM131.735 323.533L133.346 325.445L133.346 325.445L131.735 323.533ZM131.856 328.229L129.96 329.858L130.024 329.933L130.095 330.003L131.856 328.229ZM160.566 307.669L161.39 310.029L161.39 310.029L160.566 307.669ZM162.794 314.763L160.833 313.212L160.833 313.212L162.794 314.763ZM162.499 315.135L160.538 313.584L160.538 313.584L162.499 315.135ZM150.247 327.754L151.587 329.865L151.587 329.865L150.247 327.754ZM139.894 330.678L140.397 333.127L140.397 333.127L139.894 330.678ZM83.8022 344.074L83.8667 346.573L83.8667 346.573L83.8022 344.074ZM80.679 341.907L83.1782 341.842L83.1769 341.793L83.1738 341.745L80.679 341.907ZM96.565 339.453L97.6252 341.718L97.8612 341.607L98.0694 341.45L96.565 339.453ZM107.535 328.75L109.693 330.011L109.693 330.011L107.535 328.75ZM107.429 324.666L105.206 325.809L105.206 325.809L107.429 324.666ZM103.478 322.112L103.543 324.611L103.543 324.611L103.478 322.112ZM265.258 281.729L264.27 284.026L264.329 284.051L264.39 284.074L265.258 281.729ZM253.982 280.59L253.494 278.138L253.494 278.138L253.982 280.59ZM57.92 364.647C59.286 368.814 61.5687 373.665 66.5312 375.593L68.3426 370.933C65.6595 369.89 63.9823 367.089 62.6713 363.09L57.92 364.647ZM58.1122 359.694C57.4962 361.228 57.3741 362.982 57.92 364.647L62.6712 363.09C62.5222 362.635 62.5366 362.094 62.752 361.558L58.1122 359.694ZM73.225 322.064L58.1122 359.694L62.752 361.558L77.8648 323.928L73.225 322.064ZM119.981 302.947L74.635 320.668L76.4549 325.325L121.801 307.604L119.981 302.947ZM133.16 309.578L122.156 303.12L119.625 307.432L130.629 313.89L133.16 309.578ZM135.133 307.541C133.762 308.156 132.343 308.793 130.872 309.453L132.917 314.015C134.39 313.355 135.809 312.718 137.18 312.103L135.133 307.541ZM186.043 287.367C166.321 293.541 156.395 297.997 135.133 307.541L137.18 312.103C158.422 302.568 168.118 298.218 187.537 292.138L186.043 287.367ZM186.924 286.888C186.67 287.1 186.366 287.266 186.043 287.367L187.537 292.138C188.478 291.844 189.363 291.364 190.126 290.728L186.924 286.888ZM211.815 269.876C202.463 274.483 194.913 280.228 186.924 286.888L190.126 290.728C198.02 284.147 205.21 278.704 214.024 274.361L211.815 269.876ZM213.188 268.331C212.976 268.981 212.488 269.544 211.815 269.876L214.024 274.361C215.846 273.464 217.291 271.875 217.941 269.882L213.188 268.331ZM216.68 257.629L213.188 268.331L217.941 269.882L221.433 259.18L216.68 257.629ZM260.911 240.045L218.179 256.063L219.934 260.745L262.666 244.727L260.911 240.045ZM268.503 243.592L263.101 240.258L260.475 244.513L265.878 247.847L268.503 243.592ZM266.971 251.242C266.975 251.384 266.945 251.347 267.05 251.045C267.143 250.779 267.299 250.427 267.523 249.994C267.972 249.126 268.601 248.117 269.274 247.101L265.107 244.339C264.402 245.401 263.657 246.587 263.083 247.694C262.796 248.248 262.528 248.829 262.33 249.397C262.144 249.93 261.954 250.631 261.973 251.371L266.971 251.242ZM267.177 252.377C267.046 251.868 266.977 251.461 266.971 251.242L261.973 251.371C261.994 252.172 262.18 253.023 262.334 253.621L267.177 252.377ZM267.806 253.252C267.441 252.97 267.248 252.654 267.177 252.377L262.334 253.621C262.723 255.136 263.643 256.351 264.741 257.203L267.806 253.252ZM277.766 260.421C274.167 257.915 270.724 255.517 267.806 253.252L264.741 257.203C267.781 259.562 271.338 262.038 274.909 264.524L277.766 260.421ZM295.27 273.898C290.635 269.374 283.947 264.725 277.766 260.421L274.909 264.524C281.203 268.907 287.502 273.303 291.778 277.476L295.27 273.898ZM296.929 288.524C297.347 288.042 297.498 287.513 297.547 287.336C297.62 287.075 297.663 286.816 297.692 286.596C297.75 286.15 297.777 285.633 297.784 285.106C297.799 284.039 297.739 282.715 297.606 281.381C297.475 280.052 297.265 278.639 296.961 277.412C296.81 276.8 296.622 276.183 296.386 275.624C296.166 275.106 295.823 274.438 295.27 273.898L291.778 277.476C291.634 277.336 291.663 277.295 291.781 277.573C291.881 277.809 291.994 278.156 292.108 278.615C292.335 279.53 292.513 280.688 292.631 281.874C292.748 283.054 292.797 284.188 292.785 285.035C292.779 285.466 292.757 285.77 292.734 285.949C292.722 286.042 292.716 286.046 292.731 285.993C292.739 285.964 292.762 285.886 292.809 285.78C292.851 285.686 292.953 285.477 293.152 285.247L296.929 288.524ZM283.014 293.963C284.666 294.153 287.116 293.91 289.58 293.131C292.069 292.345 294.846 290.924 296.929 288.524L293.152 285.247C291.859 286.738 289.996 287.756 288.073 288.364C286.125 288.98 284.393 289.088 283.584 288.996L283.014 293.963ZM275.649 288.203C274.276 290.293 274.276 290.293 274.276 290.293C274.277 290.293 274.277 290.293 274.277 290.294C274.278 290.294 274.278 290.294 274.279 290.295C274.28 290.296 274.282 290.297 274.284 290.298C274.287 290.3 274.292 290.303 274.298 290.307C274.309 290.315 274.325 290.325 274.345 290.338C274.385 290.363 274.441 290.399 274.512 290.444C274.654 290.533 274.856 290.659 275.106 290.809C275.606 291.108 276.309 291.511 277.124 291.928C278.673 292.721 280.925 293.723 283.014 293.963L283.584 288.996C282.444 288.865 280.87 288.229 279.402 287.477C278.708 287.122 278.104 286.775 277.674 286.518C277.459 286.39 277.291 286.285 277.178 286.214C277.122 286.179 277.08 286.152 277.053 286.135C277.04 286.126 277.031 286.12 277.025 286.117C277.023 286.115 277.021 286.114 277.02 286.113C277.02 286.113 277.02 286.113 277.02 286.113C277.02 286.113 277.021 286.113 277.021 286.114C277.021 286.114 277.021 286.114 277.021 286.114C277.021 286.114 277.022 286.114 275.649 288.203ZM263.959 290.703L275.649 290.703L275.649 285.703L263.959 285.703L263.959 290.703ZM246.157 296.302C251.949 292.67 257.849 290.703 263.959 290.703V285.703C256.719 285.703 249.91 288.046 243.5 292.066L246.157 296.302ZM230.046 303.887C231.448 305.958 231.448 305.958 231.448 305.958C231.448 305.958 231.448 305.958 231.448 305.957C231.448 305.957 231.449 305.957 231.449 305.957C231.45 305.956 231.452 305.955 231.454 305.954C231.458 305.951 231.464 305.947 231.472 305.941C231.488 305.93 231.513 305.914 231.545 305.892C231.61 305.848 231.705 305.784 231.829 305.7C232.077 305.533 232.439 305.289 232.892 304.985C233.798 304.376 235.07 303.524 236.532 302.553C239.461 300.609 243.135 298.197 246.157 296.302L243.5 292.066C240.421 293.997 236.704 296.437 233.766 298.388C232.296 299.365 231.016 300.221 230.104 300.834C229.648 301.14 229.283 301.386 229.033 301.555C228.908 301.639 228.811 301.705 228.745 301.749C228.712 301.771 228.687 301.788 228.67 301.8C228.662 301.805 228.656 301.81 228.651 301.813C228.649 301.814 228.647 301.815 228.646 301.816C228.646 301.816 228.645 301.817 228.645 301.817C228.645 301.817 228.645 301.817 228.645 301.817C228.645 301.817 228.645 301.817 230.046 303.887ZM224.606 315.745C226.193 314.331 228.141 311.545 229.558 309.388C230.302 308.255 230.961 307.2 231.434 306.429C231.67 306.043 231.861 305.726 231.993 305.505C232.059 305.395 232.111 305.308 232.146 305.248C232.164 305.218 232.177 305.195 232.187 305.179C232.192 305.171 232.195 305.165 232.198 305.16C232.199 305.158 232.2 305.156 232.201 305.155C232.201 305.155 232.201 305.154 232.202 305.154C232.202 305.153 232.202 305.153 232.202 305.153C232.202 305.153 232.202 305.153 230.046 303.887C227.89 302.622 227.89 302.622 227.89 302.622C227.89 302.622 227.89 302.622 227.89 302.622C227.89 302.622 227.89 302.622 227.89 302.622C227.889 302.623 227.889 302.624 227.888 302.626C227.886 302.629 227.883 302.633 227.879 302.64C227.872 302.653 227.86 302.673 227.844 302.7C227.812 302.754 227.764 302.835 227.702 302.938C227.578 303.146 227.396 303.448 227.17 303.817C226.716 304.558 226.087 305.566 225.38 306.642C223.895 308.901 222.292 311.11 221.28 312.011L224.606 315.745ZM208.492 319.113C212.295 321.813 216.734 320.446 219.485 319.112C220.956 318.398 222.221 317.566 223.11 316.922C223.558 316.597 223.919 316.314 224.173 316.108C224.3 316.005 224.401 315.921 224.472 315.86C224.508 315.83 224.537 315.805 224.558 315.787C224.569 315.777 224.577 315.77 224.584 315.764C224.588 315.761 224.59 315.758 224.593 315.756C224.594 315.755 224.595 315.754 224.596 315.753C224.597 315.753 224.597 315.752 224.598 315.752C224.598 315.752 224.599 315.751 222.943 313.878C221.287 312.005 221.288 312.005 221.288 312.004C221.288 312.004 221.289 312.004 221.289 312.003C221.289 312.003 221.29 312.003 221.29 312.002C221.291 312.002 221.291 312.002 221.29 312.002C221.289 312.003 221.287 312.005 221.283 312.009C221.274 312.016 221.258 312.03 221.236 312.049C221.191 312.087 221.119 312.148 221.022 312.226C220.829 312.382 220.541 312.609 220.177 312.873C219.441 313.406 218.432 314.065 217.303 314.613C214.853 315.801 212.79 316.033 211.386 315.036L208.492 319.113ZM199.484 308.15C197.764 309.963 197.764 309.964 197.764 309.964C197.764 309.964 197.764 309.964 197.764 309.964C197.764 309.964 197.765 309.965 197.765 309.965C197.766 309.966 197.768 309.967 197.769 309.969C197.773 309.972 197.778 309.977 197.784 309.983C197.797 309.995 197.816 310.013 197.84 310.036C197.889 310.082 197.96 310.149 198.052 310.235C198.236 310.408 198.502 310.657 198.834 310.964C199.498 311.578 200.427 312.427 201.488 313.371C203.588 315.239 206.289 317.549 208.492 319.113L211.386 315.036C209.423 313.642 206.896 311.49 204.811 309.635C203.779 308.718 202.876 307.891 202.23 307.293C201.907 306.995 201.649 306.754 201.473 306.589C201.385 306.506 201.317 306.442 201.272 306.4C201.249 306.378 201.232 306.362 201.221 306.351C201.215 306.346 201.211 306.342 201.209 306.34C201.207 306.338 201.206 306.338 201.206 306.337C201.205 306.337 201.205 306.337 201.205 306.336C201.205 306.336 201.205 306.336 201.205 306.336C201.205 306.336 201.205 306.336 199.484 308.15ZM154.821 341.772C161.968 332.886 167.142 326.814 173.568 322.082C179.949 317.384 187.711 313.909 200.134 310.564L198.834 305.736C186.078 309.171 177.667 312.855 170.603 318.056C163.585 323.224 158.043 329.789 150.925 338.638L154.821 341.772ZM137.947 346.367C140.311 347.297 143.172 347.871 146.185 347.3C149.249 346.72 152.225 345 154.821 341.772L150.925 338.638C148.994 341.039 147.031 342.051 145.254 342.388C143.427 342.734 141.547 342.411 139.779 341.714L137.947 346.367ZM127.204 335.965C125.344 337.635 125.344 337.635 125.345 337.636C125.345 337.636 125.345 337.637 125.346 337.637C125.346 337.638 125.347 337.638 125.348 337.639C125.349 337.641 125.351 337.643 125.353 337.646C125.358 337.65 125.363 337.656 125.37 337.664C125.383 337.679 125.402 337.699 125.425 337.723C125.47 337.773 125.535 337.841 125.617 337.928C125.781 338.1 126.017 338.342 126.32 338.637C126.925 339.228 127.799 340.037 128.896 340.933C131.077 342.712 134.216 344.897 137.947 346.367L139.779 341.714C136.693 340.499 134.003 338.646 132.058 337.059C131.093 336.272 130.33 335.565 129.814 335.06C129.556 334.809 129.361 334.608 129.234 334.475C129.17 334.409 129.124 334.359 129.095 334.328C129.081 334.313 129.071 334.302 129.066 334.296C129.063 334.293 129.062 334.292 129.061 334.291C129.061 334.291 129.061 334.291 129.062 334.292C129.062 334.292 129.062 334.292 129.063 334.293C129.063 334.293 129.063 334.293 129.063 334.293C129.063 334.294 129.064 334.294 127.204 335.965ZM82.3537 369.699C86.0521 363.361 92.427 355.925 100.39 349.873C108.356 343.817 117.73 339.282 127.416 338.455L126.991 333.474C116.071 334.405 105.814 339.469 97.3639 345.892C88.9102 352.318 82.0839 360.241 78.0352 367.179L82.3537 369.699ZM66.5312 375.593C69.5235 376.756 72.9233 376.2 75.6443 375.078C78.3638 373.957 80.9923 372.032 82.3537 369.699L78.0352 367.179C77.3983 368.27 75.8149 369.6 73.7385 370.456C71.6637 371.311 69.6838 371.454 68.3426 370.933L66.5312 375.593ZM226.638 274.903C226.666 275.984 227.14 276.833 227.579 277.399C228.021 277.969 228.55 278.413 228.993 278.735L231.931 274.689C231.824 274.611 231.734 274.538 231.662 274.473C231.589 274.406 231.549 274.359 231.53 274.335C231.511 274.311 231.532 274.331 231.561 274.4C231.592 274.472 231.632 274.602 231.637 274.774L226.638 274.903ZM229.769 262.801C229.191 263.531 228.765 264.573 228.456 265.449C228.116 266.416 227.8 267.538 227.532 268.66C227.015 270.827 226.598 273.337 226.638 274.903L231.637 274.774C231.614 273.891 231.898 271.908 232.396 269.82C232.636 268.814 232.905 267.867 233.172 267.11C233.306 266.731 233.429 266.425 233.537 266.196C233.655 265.946 233.712 265.874 233.69 265.903L229.769 262.801ZM251.892 253.439C244.423 255.546 239.387 257.333 236.029 258.815C232.791 260.244 230.775 261.529 229.769 262.801L233.69 265.903C233.872 265.673 234.867 264.794 238.048 263.39C241.109 262.039 245.899 260.324 253.249 258.251L251.892 253.439ZM259.228 257.213C258.728 256.454 257.942 255.255 256.837 254.398C255.57 253.416 253.886 252.877 251.892 253.439L253.249 258.251C253.45 258.195 253.529 258.215 253.541 258.218C253.563 258.223 253.636 258.243 253.773 258.349C254.123 258.621 254.492 259.111 255.052 259.963L259.228 257.213ZM258.579 266.147C259.19 264.745 259.629 263.133 259.826 261.696C259.925 260.976 259.972 260.232 259.926 259.538C259.885 258.918 259.751 258.007 259.228 257.213L255.052 259.963C254.86 259.67 254.915 259.535 254.937 259.869C254.954 260.129 254.94 260.519 254.872 261.017C254.735 262.016 254.417 263.182 253.996 264.149L258.579 266.147ZM252.464 272.898C253.674 272.405 254.883 271.38 255.863 270.299C256.89 269.167 257.89 267.727 258.579 266.147L253.996 264.149C253.556 265.156 252.88 266.145 252.16 266.94C251.393 267.785 250.783 268.184 250.576 268.268L252.464 272.898ZM234.613 279.424C242.769 276.753 245.404 275.778 252.464 272.898L250.576 268.268C243.631 271.101 241.107 272.036 233.057 274.672L234.613 279.424ZM228.993 278.735C230.839 280.075 233.031 279.942 234.613 279.424L233.057 274.672C232.742 274.775 232.47 274.804 232.268 274.79C232.079 274.776 231.983 274.727 231.931 274.689L228.993 278.735ZM199.199 297.458C198.427 297.214 198.064 296.813 197.939 296.566C197.878 296.446 197.863 296.35 197.865 296.27C197.868 296.193 197.89 296.066 197.999 295.885L193.714 293.309C192.64 295.094 192.611 297.115 193.479 298.827C194.315 300.476 195.875 301.652 197.692 302.226L199.199 297.458ZM202.142 298.409C201.318 298.139 200.352 297.823 199.199 297.458L197.692 302.226C198.818 302.582 199.761 302.891 200.584 303.161L202.142 298.409ZM208.871 299.728C206.383 299.792 205.592 299.54 202.142 298.409L200.584 303.161C204.126 304.322 205.605 304.814 209 304.727L208.871 299.728ZM214.734 297.539C214.748 297.526 214.54 297.689 213.973 297.983C213.47 298.244 212.835 298.532 212.154 298.802C210.684 299.384 209.416 299.714 208.871 299.728L209 304.727C210.498 304.688 212.479 304.051 213.995 303.451C214.807 303.129 215.6 302.772 216.277 302.421C216.888 302.104 217.61 301.688 218.121 301.217L214.734 297.539ZM223.497 287.095C223.292 288.007 222.467 289.443 220.812 291.396C219.222 293.273 217.108 295.353 214.734 297.539L218.121 301.217C220.54 298.989 222.834 296.744 224.627 294.629C226.354 292.59 227.886 290.366 228.375 288.192L223.497 287.095ZM221.253 283.674C222.307 283.778 222.962 284.091 223.274 284.431C223.469 284.644 223.908 285.267 223.497 287.095L228.375 288.192C229.027 285.291 228.58 282.818 226.957 281.05C225.451 279.409 223.356 278.857 221.745 278.698L221.253 283.674ZM197.999 295.885C200.123 292.351 204.529 289.119 209.39 286.818C211.777 285.687 214.176 284.828 216.3 284.29C218.469 283.74 220.181 283.568 221.253 283.674L221.745 278.698C219.844 278.51 217.489 278.83 215.072 279.443C212.61 280.067 209.906 281.041 207.25 282.299C202.023 284.774 196.58 288.541 193.714 293.309L197.999 295.885ZM130.124 321.621C128.832 322.71 128.456 324.395 128.457 325.66C128.458 327.023 128.88 328.6 129.96 329.858L133.753 326.6C133.597 326.419 133.457 326.071 133.457 325.655C133.457 325.462 133.488 325.328 133.511 325.266C133.537 325.192 133.519 325.299 133.346 325.445L130.124 321.621ZM159.741 305.309C148.853 309.111 141.655 311.906 130.124 321.621L133.346 325.445C144.229 316.275 150.797 313.728 161.39 310.029L159.741 305.309ZM164.754 316.314C165.898 314.868 166.55 313.361 166.668 311.843C166.787 310.313 166.346 308.977 165.655 307.931C164.98 306.912 164.065 306.159 163.15 305.695C162.373 305.301 161.056 304.85 159.741 305.309L161.39 310.029C161.03 310.155 160.789 310.108 160.783 310.107C160.749 310.101 160.789 310.104 160.888 310.154C161.09 310.257 161.324 310.448 161.485 310.69C161.627 310.906 161.707 311.149 161.683 311.456C161.658 311.775 161.504 312.363 160.833 313.212L164.754 316.314ZM164.46 316.686L164.755 316.314L160.833 313.212L160.538 313.584L164.46 316.686ZM151.587 329.865C156.586 326.69 160.975 321.093 164.46 316.686L160.538 313.584C156.897 318.19 153.044 323.016 148.907 325.644L151.587 329.865ZM140.397 333.127C143.24 332.543 145.499 332.054 147.261 331.573C148.989 331.102 150.454 330.585 151.587 329.865L148.907 325.644C148.431 325.946 147.567 326.307 145.945 326.749C144.356 327.183 142.243 327.644 139.392 328.229L140.397 333.127ZM131.856 328.229C130.095 330.003 130.095 330.004 130.096 330.005C130.096 330.005 130.097 330.006 130.098 330.006C130.099 330.007 130.1 330.008 130.101 330.01C130.103 330.012 130.106 330.014 130.109 330.017C130.114 330.023 130.121 330.029 130.128 330.036C130.143 330.05 130.161 330.067 130.182 330.088C130.225 330.128 130.282 330.181 130.353 330.243C130.493 330.368 130.688 330.533 130.934 330.723C131.422 331.101 132.125 331.586 133.008 332.036C134.762 332.931 137.36 333.75 140.397 333.127L139.392 328.229C137.811 328.553 136.389 328.148 135.28 327.582C134.729 327.301 134.289 326.997 133.991 326.767C133.844 326.653 133.736 326.561 133.672 326.503C133.639 326.475 133.618 326.455 133.609 326.447C133.605 326.442 133.603 326.441 133.604 326.442C133.605 326.443 133.606 326.444 133.609 326.446C133.61 326.447 133.611 326.449 133.612 326.45C133.613 326.451 133.614 326.452 133.615 326.452C133.615 326.453 133.616 326.454 133.616 326.454C133.617 326.454 133.618 326.455 131.856 328.229ZM83.7376 341.574C83.2771 341.586 83.0887 341.508 83.0601 341.495C83.043 341.487 83.0808 341.505 83.1192 341.558C83.1459 341.595 83.1546 341.624 83.1586 341.639C83.1613 341.65 83.1651 341.668 83.1686 341.696C83.1705 341.711 83.1724 341.73 83.1741 341.754C83.1749 341.766 83.1757 341.779 83.1764 341.794C83.1768 341.801 83.1771 341.809 83.1774 341.817C83.1776 341.821 83.1777 341.825 83.1778 341.829C83.1779 341.831 83.178 341.833 83.178 341.836C83.1781 341.837 83.1781 341.838 83.1781 341.839C83.1782 341.841 83.1782 341.842 80.679 341.907C78.1799 341.971 78.1799 341.973 78.18 341.975C78.18 341.975 78.18 341.977 78.18 341.978C78.1801 341.98 78.1802 341.983 78.1803 341.985C78.1804 341.99 78.1806 341.995 78.1808 342C78.1811 342.01 78.1816 342.021 78.1821 342.033C78.1833 342.056 78.1848 342.082 78.1868 342.11C78.1908 342.167 78.197 342.234 78.2064 342.31C78.2251 342.461 78.2573 342.654 78.3134 342.874C78.424 343.308 78.6388 343.893 79.0632 344.482C80.0116 345.797 81.6307 346.631 83.8667 346.573L83.7376 341.574ZM96.565 339.453C95.5048 337.189 95.5049 337.189 95.5049 337.189C95.5049 337.189 95.5049 337.189 95.5049 337.189C95.5047 337.189 95.5045 337.19 95.5041 337.19C95.5032 337.19 95.5018 337.191 95.4998 337.192C95.4958 337.194 95.4896 337.196 95.4811 337.2C95.4641 337.208 95.4381 337.22 95.4037 337.236C95.335 337.268 95.2325 337.316 95.1004 337.376C94.8359 337.497 94.453 337.672 93.9833 337.881C93.0423 338.301 91.7603 338.86 90.3888 339.419C89.0115 339.981 87.5739 340.531 86.3147 340.941C84.9671 341.381 84.0998 341.565 83.7376 341.574L83.8667 346.573C85.037 346.543 86.5314 346.13 87.8642 345.695C89.2853 345.232 90.8469 344.632 92.2772 344.049C93.7133 343.463 95.0472 342.881 96.0204 342.447C96.5077 342.23 96.9063 342.049 97.1842 341.921C97.3232 341.858 97.4321 341.807 97.5069 341.773C97.5443 341.755 97.5732 341.742 97.5931 341.732C97.603 341.728 97.6107 341.724 97.6161 341.722C97.6187 341.721 97.6209 341.72 97.6224 341.719C97.6231 341.718 97.6237 341.718 97.6242 341.718C97.6244 341.718 97.6247 341.718 97.6248 341.718C97.625 341.718 97.6252 341.718 96.565 339.453ZM105.376 327.489C104.333 329.275 101.886 331.711 99.4446 333.858C98.2693 334.891 97.168 335.795 96.3601 336.441C95.9568 336.763 95.6282 337.02 95.4022 337.195C95.2892 337.282 95.2019 337.349 95.1438 337.394C95.1147 337.416 95.093 337.432 95.079 337.443C95.072 337.448 95.0669 337.452 95.0638 337.454C95.0623 337.455 95.0612 337.456 95.0607 337.457C95.0604 337.457 95.0603 337.457 95.0603 337.457C95.0603 337.457 95.0603 337.457 95.0603 337.457C95.0605 337.457 95.0606 337.457 96.565 339.453C98.0694 341.45 98.0696 341.45 98.0698 341.45C98.0699 341.45 98.0702 341.449 98.0705 341.449C98.071 341.449 98.0716 341.448 98.0723 341.448C98.0738 341.447 98.0759 341.445 98.0784 341.443C98.0834 341.44 98.0905 341.434 98.0995 341.427C98.1175 341.414 98.1434 341.394 98.1767 341.369C98.2432 341.318 98.3394 341.244 98.4617 341.15C98.7063 340.96 99.0558 340.687 99.482 340.346C100.333 339.666 101.497 338.711 102.746 337.613C105.153 335.497 108.191 332.582 109.693 330.011L105.376 327.489ZM105.206 325.809C105.385 326.158 105.472 326.544 105.476 326.894C105.48 327.262 105.394 327.459 105.376 327.489L109.693 330.011C110.784 328.144 110.702 325.566 109.653 323.524L105.206 325.809ZM103.543 324.611C104.109 324.597 104.721 324.866 105.206 325.809L109.653 323.524C108.459 321.2 106.242 319.54 103.414 319.613L103.543 324.611ZM86.2355 331.702C86.1481 331.814 86.226 331.69 86.7827 331.337C87.258 331.035 87.9073 330.674 88.7048 330.269C90.2941 329.462 92.3297 328.555 94.4264 327.698C96.52 326.843 98.6331 326.054 100.368 325.48C101.237 325.193 101.988 324.966 102.582 324.813C102.878 324.737 103.117 324.683 103.299 324.649C103.497 324.612 103.565 324.611 103.543 324.611L103.414 319.613C102.773 319.63 102.008 319.797 101.331 319.972C100.593 320.163 99.7277 320.425 98.7973 320.733C96.933 321.35 94.7114 322.181 92.5351 323.07C90.3619 323.958 88.1925 324.922 86.4418 325.81C85.5693 326.253 84.7648 326.695 84.1027 327.116C83.522 327.484 82.7788 328.001 82.2865 328.635L86.2355 331.702ZM83.1738 341.745C83.1186 340.897 83.4776 338.867 84.1881 336.543C84.524 335.445 84.9072 334.382 85.2901 333.493C85.6914 332.56 86.0288 331.968 86.2355 331.702L82.2865 328.635C81.6837 329.411 81.1467 330.472 80.6973 331.516C80.2295 332.603 79.7857 333.842 79.4066 335.081C78.6873 337.434 78.0648 340.231 78.1843 342.069L83.1738 341.745ZM265.258 281.729C266.246 279.433 266.245 279.433 266.244 279.432C266.244 279.432 266.243 279.432 266.243 279.432C266.242 279.431 266.241 279.431 266.239 279.43C266.237 279.429 266.234 279.428 266.231 279.427C266.225 279.424 266.218 279.421 266.209 279.417C266.191 279.41 266.168 279.4 266.14 279.389C266.084 279.366 266.008 279.336 265.912 279.299C265.721 279.225 265.452 279.126 265.115 279.014C264.443 278.79 263.491 278.51 262.34 278.272C260.056 277.798 256.879 277.465 253.494 278.138L254.47 283.042C256.985 282.542 259.446 282.778 261.325 283.168C262.255 283.36 263.016 283.585 263.536 283.758C263.795 283.845 263.992 283.917 264.118 283.966C264.181 283.99 264.226 284.008 264.251 284.018C264.264 284.024 264.272 284.027 264.275 284.028C264.277 284.029 264.277 284.029 264.276 284.029C264.276 284.028 264.275 284.028 264.274 284.028C264.273 284.027 264.273 284.027 264.272 284.027C264.272 284.027 264.271 284.026 264.271 284.026C264.27 284.026 264.27 284.026 265.258 281.729ZM253.494 278.138C250.132 278.807 246.87 280.843 243.983 283.233C241.057 285.656 238.299 288.627 235.943 291.468C233.58 294.317 231.579 297.088 230.17 299.143C229.464 300.172 228.904 301.025 228.518 301.624C228.326 301.924 228.176 302.161 228.074 302.324C228.023 302.405 227.984 302.469 227.957 302.513C227.943 302.535 227.933 302.552 227.925 302.564C227.921 302.57 227.918 302.575 227.916 302.578C227.915 302.58 227.914 302.581 227.914 302.582C227.913 302.583 227.913 302.584 227.913 302.584C227.913 302.584 227.912 302.585 230.046 303.887C232.18 305.19 232.18 305.19 232.18 305.191C232.18 305.19 232.18 305.191 232.18 305.19C232.18 305.19 232.18 305.19 232.181 305.189C232.182 305.187 232.183 305.185 232.186 305.18C232.191 305.172 232.199 305.159 232.21 305.141C232.232 305.105 232.267 305.05 232.313 304.976C232.405 304.829 232.543 304.61 232.724 304.329C233.086 303.766 233.618 302.954 234.293 301.971C235.644 300.001 237.553 297.36 239.792 294.66C242.038 291.951 244.573 289.236 247.172 287.084C249.809 284.9 252.304 283.473 254.47 283.042L253.494 278.138ZM264.39 284.074C267.75 285.317 270.134 286.81 271.653 287.962C272.413 288.538 272.957 289.029 273.299 289.361C273.47 289.527 273.59 289.653 273.661 289.73C273.696 289.768 273.72 289.795 273.731 289.807C273.736 289.814 273.739 289.816 273.738 289.816C273.738 289.816 273.737 289.814 273.735 289.812C273.734 289.811 273.733 289.81 273.732 289.809C273.731 289.808 273.731 289.807 273.73 289.806C273.73 289.806 273.729 289.805 273.729 289.805C273.728 289.804 273.728 289.803 275.649 288.203C277.57 286.604 277.569 286.603 277.568 286.602C277.568 286.602 277.568 286.601 277.567 286.6C277.566 286.599 277.565 286.598 277.564 286.597C277.562 286.595 277.56 286.592 277.558 286.589C277.553 286.583 277.547 286.577 277.541 286.569C277.528 286.554 277.512 286.535 277.492 286.513C277.453 286.469 277.401 286.411 277.336 286.34C277.206 286.199 277.022 286.007 276.784 285.775C276.306 285.311 275.607 284.685 274.673 283.977C272.803 282.559 269.991 280.815 266.125 279.385L264.39 284.074Z" fill="#F2F2F2"/>
<path fill-rule="evenodd" clip-rule="evenodd" d="M71.5 358.5C69.567 358.5 68 360.067 68 362C68 363.933 69.567 365.5 71.5 365.5C73.433 365.5 75 363.933 75 362C75 360.067 73.433 358.5 71.5 358.5ZM65 362C65 358.41 67.9101 355.5 71.5 355.5C75.0899 355.5 78 358.41 78 362C78 365.59 75.0899 368.5 71.5 368.5C67.9101 368.5 65 365.59 65 362Z" fill="#F2F2F2"/>
<circle cx="284" cy="281" r="5" stroke="#F2F2F2" stroke-width="3"/>
<circle cx="143.5" cy="337.5" r="2" fill="#F2F2F2" stroke="#F2F2F2" stroke-width="3"/>
<circle cx="214.5" cy="309.5" r="2" fill="#F2F2F2" stroke="#F2F2F2" stroke-width="3"/>
<path d="M166.735 69.8827L184.445 65.8574L176.438 62.0017C190.617 58.2359 200.929 59.8364 204.325 60.5772C205.125 60.7517 205.844 61.1728 206.4 61.7741C210.261 65.951 211.363 69.7243 212.072 75.6471C212.11 75.9688 212.117 76.2903 212.038 76.6045C211.56 78.5084 208.642 85.9431 191.334 94.7923L194.522 86.6627L176.789 96.9625M166.735 69.8827L150.96 75.9962M166.735 69.8827L168.158 74.331M176.789 96.9625L159.642 103.348M176.789 96.9625L174.868 92.5594M159.642 103.348L156.783 94.1273M159.642 103.348L136.674 110.208M128.954 87.8334L150.96 75.9962M128.954 87.8334L121.472 91.1295M128.954 87.8334L136.674 110.208M150.96 75.9962L153.786 84.394M172.946 88.1563L169.581 78.7793M172.946 88.1563L156.783 94.1273M172.946 88.1563L174.868 92.5594M169.581 78.7793L153.786 84.394M169.581 78.7793L168.158 74.331M153.786 84.394L156.783 94.1273M113.99 94.4255L107.141 97.8407L114.654 119.913L121.752 116.541M113.99 94.4255L121.752 116.541M113.99 94.4255L121.472 91.1295M121.752 116.541L129.319 113.334M121.472 91.1295L129.319 113.334M129.319 113.334L136.674 110.208M168.158 74.331L179.974 74.7985C180.61 74.8237 181.246 74.727 181.846 74.5136L193.029 70.5384C195.085 69.8074 197.348 70.8574 198.118 72.8994V72.8994C198.894 74.9585 197.863 77.258 195.81 78.0488L186.086 81.7937C185.421 82.0498 184.818 82.4451 184.319 82.9531L174.868 92.5594" stroke="#F2F2F2" stroke-width="5" stroke-linecap="round"/>
<path d="M156.746 204.648L172.071 214.394L169.173 205.992C181.829 213.413 187.951 221.864 189.815 224.797C190.255 225.488 190.462 226.295 190.426 227.113C190.177 232.796 188.272 236.235 184.564 240.907C184.363 241.161 184.139 241.392 183.86 241.557C182.172 242.558 174.837 245.719 156.368 239.654L164.387 236.196L144.589 230.851M156.746 204.648L154.588 208.79M156.746 204.648L132.742 197.207M144.589 230.851L146.363 226.387M144.589 230.851L122.283 218.44M132.742 197.207L125.134 194.212M132.742 197.207L122.283 218.44M117.526 191.218L110.279 188.757L99.8903 209.63L107.281 212.298M117.526 191.218L107.281 212.298M117.526 191.218L125.134 194.212M107.281 212.298L114.886 215.416M125.134 194.212L114.886 215.416M114.886 215.416L122.283 218.44M154.588 208.79L152.43 212.932L148.138 221.922L146.363 226.387M154.588 208.79L162.573 217.511C163.003 217.981 163.519 218.364 164.093 218.641L174.789 223.786C176.755 224.732 177.602 227.078 176.694 229.062V229.062C175.777 231.063 173.419 231.949 171.412 231.047L161.907 226.777C161.257 226.485 160.552 226.335 159.839 226.338L146.363 226.387" stroke="#F2F2F2" stroke-width="5" stroke-linecap="round"/>
</svg>
