<svg width="16" height="16" viewBox="0 0 16 16" fill="none" xmlns="http://www.w3.org/2000/svg">
<g clip-path="url(#clip0_1_2)">
<path d="M8.10388 3.62748C8.06389 3.56748 7.94389 3.56748 7.89388 3.62748L1.22388 12.2475C1.22388 12.2475 3.58389 15.9975 8.00389 15.9975C12.4139 15.9975 14.7739 12.2475 14.7739 12.2475L8.10388 3.62748Z" fill="#010609"/>
<path d="M8.15046 3.73398C8.14026 3.73407 8.13025 3.73583 8.12106 3.73913C8.11188 3.74244 8.10386 3.74722 8.09741 3.75311C8.09095 3.75901 8.0863 3.7659 8.08379 3.77327C8.08128 3.78065 8.08081 3.78833 8.08271 3.79581L11.1646 15.3476C12.6556 14.7054 13.9161 13.6248 14.7784 12.2494L8.21139 3.75961C8.20515 3.75171 8.19628 3.7452 8.18558 3.7407C8.17489 3.7362 8.16274 3.73388 8.15046 3.73398Z" fill="url(#paint0_linear_1_2)"/>
<path d="M8.00013 0C3.5817 0 0 3.58171 0 8.00001C0 9.50293 0.423275 10.9755 1.22165 12.249L7.89175 3.6259C7.93961 3.56361 8.06031 3.56361 8.10817 3.6259L14.7783 12.2493C15.5767 10.9758 16.0003 9.50307 16.0003 8.00001C16.0003 3.58171 12.4186 0 8.00013 0Z" fill="white"/>
</g>
<defs>
<linearGradient id="paint0_linear_1_2" x1="8.15049" y1="3.73398" x2="13.2938" y2="13.9984" gradientUnits="userSpaceOnUse">
<stop stop-color="white" stop-opacity="0"/>
<stop offset="0.495173" stop-color="white" stop-opacity="0.3"/>
<stop offset="1" stop-color="white" stop-opacity="0.3"/>
</linearGradient>
<clipPath id="clip0_1_2">
<rect width="16" height="16" fill="white"/>
</clipPath>
</defs>
</svg>
