<?xml version="1.0" standalone="no"?>
<!DOCTYPE svg PUBLIC "-//W3C//DTD SVG 20010904//EN"
 "http://www.w3.org/TR/2001/REC-SVG-20010904/DTD/svg10.dtd">
<svg version="1.0" xmlns="http://www.w3.org/2000/svg"
 width="1232.000000pt" height="1232.000000pt" viewBox="0 0 1232.000000 1232.000000"
 preserveAspectRatio="xMidYMid meet">
<metadata>
Created by potrace 1.14, written by Peter Selinger 2001-2017
</metadata>
<g transform="translate(0.000000,1232.000000) scale(0.100000,-0.100000)"
fill="#000000" stroke="none">
<path d="M11675 11073 c-10 -37 -41 -113 -69 -168 -164 -323 -440 -613 -841
-884 -163 -110 -462 -281 -493 -281 -5 0 -19 48 -31 108 -25 117 -120 414
-131 407 -4 -2 -10 -47 -13 -99 -5 -78 -12 -106 -36 -155 -123 -244 -519 -438
-1051 -515 -299 -44 -480 -33 -1005 59 -271 48 -388 58 -650 59 -229 1 -258
-1 -340 -22 -192 -48 -346 -156 -441 -308 l-46 -74 -41 34 c-124 101 -275 178
-592 306 -635 255 -936 320 -1420 307 -405 -12 -628 -72 -765 -207 -53 -52
-70 -79 -118 -192 -17 -40 -26 -48 -59 -57 -102 -28 -303 -195 -459 -382 l-64
-78 45 -101 c46 -105 191 -629 181 -655 -2 -7 -35 -24 -73 -39 -135 -54 -138
-70 -47 -293 37 -92 77 -181 87 -197 29 -41 79 -59 143 -51 l53 6 11 -38 c32
-115 103 -420 130 -563 27 -138 30 -168 19 -185 -53 -84 -75 -202 -66 -367 4
-86 10 -117 27 -145 l21 -35 -38 -47 c-65 -79 -206 -212 -248 -233 -22 -11
-74 -53 -116 -92 -67 -63 -264 -196 -374 -253 -22 -12 -78 -28 -125 -37 -116
-21 -219 -73 -293 -148 -52 -53 -72 -65 -205 -122 -223 -95 -462 -186 -705
-265 -217 -71 -581 -177 -689 -201 -34 -8 -59 -19 -62 -29 -3 -9 -28 -42 -55
-74 -96 -115 -155 -271 -132 -354 15 -53 14 -106 -5 -193 -31 -149 -3 -232
120 -356 168 -167 440 -305 740 -374 90 -21 99 -25 108 -51 5 -15 18 -45 29
-66 l19 -37 -28 -28 -27 -28 -85 36 c-178 75 -377 111 -559 101 -139 -8 -243
-35 -371 -98 -93 -46 -116 -64 -200 -148 -81 -81 -103 -111 -143 -191 -71
-143 -90 -226 -91 -400 -1 -159 12 -236 66 -390 174 -491 624 -882 1151 -997
120 -26 364 -23 469 5 166 45 270 100 379 200 165 152 251 357 253 602 1 63
-3 139 -7 168 l-8 53 52 -3 51 -3 23 -60 c71 -191 179 -351 354 -525 237 -237
480 -371 791 -437 125 -26 346 -24 463 5 369 92 607 375 633 756 5 73 -4 210
-19 289 -1 8 16 12 51 12 l54 0 23 -68 c69 -197 191 -383 365 -558 297 -297
648 -454 1020 -453 180 0 281 22 425 94 210 104 341 263 411 495 22 77 27 110
28 225 0 74 -3 163 -7 198 l-9 62 64 0 63 0 24 -67 c36 -101 119 -260 187
-354 74 -105 264 -296 369 -371 174 -123 363 -210 560 -256 94 -22 133 -26
265 -25 134 0 168 3 252 26 174 46 345 152 435 268 131 170 183 327 183 552 0
489 -352 998 -869 1257 -94 47 -283 107 -391 125 -118 19 -270 19 -375 0 -44
-8 -85 -15 -91 -15 -6 0 -42 24 -80 53 -38 30 -89 66 -114 80 l-45 27 105 1
c58 1 249 4 425 8 l320 6 47 27 c25 16 63 47 83 70 47 55 110 185 130 268 73
309 -33 705 -253 941 -84 90 -217 278 -324 459 -99 165 -242 429 -237 435 3 2
34 -16 69 -41 201 -140 471 -215 729 -201 58 3 131 11 161 17 66 13 210 61
210 69 0 4 -35 19 -77 35 -101 37 -314 142 -400 199 -89 57 -164 122 -225 194
-59 69 -180 245 -173 251 2 3 45 -33 94 -80 230 -219 450 -341 756 -418 396
-100 779 -74 1145 77 47 19 96 39 109 44 13 5 22 11 20 14 -3 2 -54 11 -114
20 -446 65 -831 190 -1006 326 -66 52 -154 129 -147 129 3 0 66 -31 139 -69
74 -39 180 -88 236 -110 382 -152 923 -205 1203 -119 182 56 366 185 484 338
46 59 101 149 95 154 -2 2 -35 -3 -74 -11 -85 -18 -325 -12 -480 11 -266 41
-601 136 -820 231 -72 31 -138 59 -147 62 -10 3 -18 9 -18 13 0 4 53 -8 118
-27 499 -145 776 -191 1067 -180 83 3 188 13 235 21 419 75 758 312 927 648
41 81 87 208 78 217 -3 2 -30 -13 -61 -33 -71 -48 -156 -80 -281 -106 -128
-28 -447 -38 -630 -20 -250 23 -575 90 -868 176 -124 37 -175 62 -100 50 402
-63 612 -81 885 -73 486 14 794 113 1042 336 266 240 420 709 382 1164 -4 43
-10 77 -14 77 -4 0 -30 -39 -56 -87 -132 -236 -368 -385 -766 -482 -300 -73
-800 -110 -1158 -84 l-94 6 150 39 c645 167 972 328 1246 616 173 182 284 396
340 655 19 87 22 133 22 307 0 325 -39 503 -207 950 -22 58 -28 65 -54 68 -29
3 -30 1 -48 -65z m103 -235 c261 -778 130 -1385 -385 -1781 -239 -184 -502
-296 -985 -422 l-168 -43 0 105 0 105 -54 -48 c-266 -242 -865 -342 -1421
-239 -210 40 -209 41 10 48 303 10 597 55 845 128 58 17 233 64 390 104 157
40 330 87 385 105 193 62 426 200 580 346 74 69 66 65 -85 -46 -107 -79 -315
-187 -433 -225 -66 -21 -312 -77 -435 -99 l-33 -6 43 53 c24 28 56 69 71 90
16 20 36 37 46 37 31 0 184 56 269 99 156 78 356 219 482 338 114 106 276 318
390 508 l24 40 -64 -58 c-36 -32 -108 -97 -160 -144 -265 -239 -544 -418 -772
-494 -49 -17 -92 -29 -94 -27 -2 3 1 42 6 89 5 46 10 117 10 156 l0 73 99 50
c636 318 1120 748 1338 1188 26 50 49 92 53 92 4 0 25 -55 48 -122z m-1624
-1029 c49 -289 20 -544 -82 -729 -52 -95 -168 -206 -268 -257 -193 -100 -633
-186 -1023 -199 -194 -7 -379 5 -560 36 -63 11 -116 18 -118 16 -5 -4 216
-103 284 -127 449 -155 1020 -177 1428 -53 130 39 201 69 291 124 36 22 68 40
71 40 9 0 -5 -127 -23 -198 -8 -37 -38 -112 -64 -168 -106 -220 -292 -356
-570 -418 -127 -28 -482 -29 -665 -2 -284 41 -564 106 -813 188 -85 27 -155
48 -158 46 -2 -2 52 -36 119 -75 398 -231 736 -350 1092 -384 169 -17 659 -17
744 -1 36 6 67 9 69 7 9 -8 -70 -119 -127 -179 -108 -113 -267 -205 -426 -245
-118 -29 -267 -44 -365 -36 -222 17 -536 104 -889 244 -106 43 -131 43 -131 2
0 -35 439 -279 658 -366 172 -68 456 -139 657 -166 130 -17 127 -14 70 -66
-70 -62 -186 -129 -276 -157 -328 -105 -844 2 -1255 260 -82 51 -152 105 -293
223 -64 54 -62 50 45 -94 90 -121 224 -256 324 -327 185 -130 471 -230 780
-273 200 -27 198 -26 102 -74 -112 -57 -185 -73 -344 -79 -267 -8 -392 19
-622 135 -219 112 -393 242 -467 350 -25 36 -30 51 -25 79 4 19 9 34 12 34 3
0 44 -35 92 -78 92 -82 237 -196 287 -227 19 -12 14 -5 -15 20 -154 134 -360
354 -360 386 0 10 2 19 4 19 2 0 75 -71 162 -158 192 -191 260 -243 427 -327
147 -74 207 -88 74 -18 -133 71 -187 121 -360 328 -86 105 -195 231 -241 281
-82 88 -85 93 -104 172 -10 45 -15 79 -10 75 6 -3 56 -36 111 -73 138 -91 281
-172 472 -268 147 -73 325 -152 343 -152 4 0 -67 41 -158 91 -255 141 -456
273 -568 371 -106 93 -210 232 -198 264 8 21 20 14 214 -137 441 -343 942
-634 1183 -688 59 -13 47 3 -17 23 -85 27 -294 135 -441 229 -206 132 -501
359 -1003 771 -136 112 -158 133 -177 179 -12 29 -23 62 -23 74 0 21 9 17 93
-38 197 -130 958 -479 1272 -584 103 -34 337 -96 360 -94 5 0 -73 29 -175 63
-427 145 -699 279 -976 477 -110 79 -199 158 -159 142 11 -5 66 -32 123 -61
178 -91 752 -319 973 -386 279 -84 625 -131 825 -111 l79 8 -130 13 c-334 32
-641 109 -945 239 -215 92 -631 288 -764 361 -66 36 -209 124 -318 195 -202
133 -317 199 -347 199 -13 0 -26 31 -59 146 -66 225 -88 265 -256 460 l-36 40
38 64 c83 143 219 243 397 292 72 20 103 22 320 22 271 0 366 -10 783 -80 353
-59 508 -71 709 -55 257 20 553 82 747 157 219 85 408 210 494 329 54 75 52
77 76 -66z m-5204 -63 c250 -39 510 -118 902 -275 445 -177 606 -282 795 -516
79 -97 91 -120 138 -265 35 -109 147 -531 142 -536 -1 -2 -21 13 -44 32 -36
30 -46 47 -74 132 -46 140 -155 435 -175 474 -45 89 -184 233 -321 335 -321
237 -721 391 -1178 452 -159 22 -484 41 -685 41 -304 0 -423 -23 -520 -100
-47 -37 -120 -144 -120 -175 0 -12 48 -164 106 -336 115 -340 109 -307 81
-463 l-12 -68 -62 -26 c-35 -14 -65 -23 -68 -20 -3 3 -50 164 -106 359 -140
494 -138 489 -154 489 -8 0 -16 -3 -18 -7 -3 -5 11 -60 29 -123 18 -63 34
-116 34 -116 0 -1 -9 -4 -20 -7 -12 -3 -20 -14 -20 -25 0 -29 21 -38 37 -17 7
11 13 16 13 13 0 -4 36 -133 80 -287 44 -154 80 -288 80 -298 -1 -17 -1 -17
-14 0 -19 24 -50 23 -43 -3 3 -11 0 -23 -6 -27 -7 -4 -104 -46 -217 -94 -174
-73 -206 -83 -212 -70 -16 34 -151 557 -150 578 1 12 -5 26 -14 31 -9 5 -24
27 -34 50 l-19 41 73 83 c141 161 292 284 379 310 68 19 84 35 118 116 42 103
82 156 152 202 94 63 288 115 497 134 109 9 529 -3 630 -18z m163 -787 c109
-22 183 -44 262 -80 l50 -22 -40 -9 c-22 -4 -197 -39 -390 -77 -384 -76 -765
-160 -779 -172 -7 -6 12 -114 41 -228 5 -21 3 -23 -15 -19 -11 3 -55 30 -96
59 l-76 54 6 60 c13 120 60 229 130 299 72 72 261 132 504 160 78 9 306 -5
403 -25z m7123 -136 c-33 -370 -141 -636 -338 -832 -236 -235 -579 -341 -1097
-341 -206 0 -351 11 -588 45 -193 28 -206 32 -199 52 4 8 9 27 12 41 6 26 5
26 -33 -11 l-40 -38 -164 36 c-222 51 -216 46 -123 79 44 15 105 41 136 58
l56 30 124 -16 c226 -28 426 -39 618 -32 177 6 354 26 368 41 4 4 -54 5 -128
1 -160 -8 -487 7 -638 29 -111 17 -219 43 -227 55 -2 4 13 23 34 44 l37 37
530 2 c569 3 605 6 825 62 98 25 264 83 257 91 -3 2 -50 -5 -106 -16 -218 -42
-348 -53 -632 -54 -158 -1 -335 5 -415 12 -152 15 -356 40 -361 45 -2 2 10 35
26 73 16 38 30 76 30 84 0 13 48 15 367 15 235 0 410 5 483 13 394 45 649 112
882 234 103 54 243 159 278 208 12 17 24 30 27 30 3 0 2 -35 -1 -77z m-6273
28 c32 -32 10 -229 -49 -433 -54 -190 -142 -409 -177 -445 -18 -18 -408 -65
-767 -93 -80 -7 -225 -10 -324 -8 -176 3 -179 3 -195 27 -26 39 -62 134 -54
141 10 8 365 100 387 100 9 0 22 -15 30 -34 8 -19 25 -38 38 -42 52 -18 415 2
661 37 l78 11 23 47 c84 165 143 441 106 486 -26 31 -179 14 -570 -65 -135
-27 -288 -60 -340 -73 l-95 -23 3 -35 2 -36 -205 -33 c-113 -18 -208 -31 -210
-29 -2 3 -15 52 -28 109 -17 74 -21 107 -13 111 15 9 517 119 766 168 258 51
527 96 650 110 52 6 109 13 125 15 44 6 148 -3 158 -13z m442 -441 c135 -63
374 -231 504 -354 30 -28 59 -72 92 -142 153 -320 260 -679 262 -875 1 -86 -2
-100 -25 -140 -30 -51 -66 -86 -126 -123 -23 -15 -47 -37 -52 -50 -18 -48 -43
-651 -35 -856 4 -107 8 -207 8 -222 0 -76 -117 -227 -245 -315 -124 -86 -197
-114 -390 -153 -174 -35 -255 -21 -331 55 -73 72 -91 122 -91 240 1 96 5 115
98 445 161 570 189 705 189 915 1 165 -15 240 -74 363 -76 157 -206 253 -458
336 -237 78 -473 122 -954 177 -147 16 -287 37 -310 45 -60 21 -87 50 -87 94
0 49 -24 80 -61 80 -25 0 -29 4 -29 29 0 36 31 77 52 68 9 -3 19 -18 22 -33 4
-16 19 -52 32 -81 40 -83 58 -87 367 -80 245 6 467 24 807 68 90 11 172 25
182 30 26 14 110 194 159 341 l43 128 30 -48 c75 -119 130 -285 176 -531 58
-313 60 -317 262 -646 181 -294 275 -420 353 -473 44 -30 56 -33 100 -29 41 4
54 10 80 40 40 46 91 150 110 224 19 73 19 212 0 283 -41 153 -149 302 -341
466 -144 124 -353 335 -400 404 -69 100 -88 150 -88 225 0 43 7 84 17 108 21
45 32 44 152 -13z m-2352 18 c12 -6 52 -33 89 -60 36 -27 79 -53 95 -58 22 -8
119 4 431 55 222 36 418 65 436 65 63 0 108 -58 85 -112 -14 -34 -9 -32 -499
-157 -195 -50 -368 -96 -384 -103 -34 -14 -51 -51 -60 -133 -9 -81 -24 -123
-44 -129 -34 -10 -878 -166 -900 -166 -46 0 -78 49 -146 221 -36 91 -66 172
-66 181 0 8 8 22 18 30 9 8 163 76 342 151 613 256 562 237 603 215z m302
-555 c10 -68 20 -87 54 -110 50 -34 83 -40 336 -68 870 -97 1260 -223 1398
-453 143 -237 138 -503 -19 -1071 -30 -108 -79 -286 -110 -396 -79 -286 -82
-382 -13 -490 38 -60 11 -47 -58 29 -54 58 -83 110 -83 147 0 13 20 83 45 156
99 292 134 495 142 819 8 315 -16 458 -104 627 -100 189 -356 309 -999 466
-620 152 -629 155 -656 240 -12 35 -15 68 -11 97 5 42 7 44 39 44 31 0 34 -3
39 -37z m4250 -18 c179 -36 343 -55 505 -61 138 -5 152 -8 283 -51 75 -24 137
-47 137 -50 0 -8 -313 5 -450 18 -148 14 -284 43 -435 94 -139 46 -244 90
-190 79 17 -3 84 -17 150 -29z m-4370 -168 c16 -34 44 -116 60 -182 30 -115
32 -121 65 -137 19 -10 110 -53 201 -96 187 -89 308 -158 484 -275 134 -90
295 -206 295 -213 0 -6 21 -19 -220 128 -113 69 -239 144 -281 166 -85 47
-489 223 -498 218 -3 -2 -4 -52 -1 -112 l5 -107 90 -24 c169 -45 421 -154 642
-279 128 -72 523 -329 523 -340 0 -3 -28 10 -62 29 -172 95 -531 284 -605 318
-84 38 -201 77 -298 98 -79 17 -237 41 -272 41 -29 0 -33 -4 -39 -36 -8 -44
-20 -49 -80 -32 l-48 13 3 65 c3 87 -28 258 -96 535 -31 127 -56 237 -57 245
-1 10 17 18 59 26 100 19 97 20 130 -49z m-177 -207 c75 -306 95 -415 96 -515
1 -73 -2 -90 -14 -90 -9 0 -15 10 -15 25 0 32 -30 39 -38 9 -5 -20 -10 -21
-54 -15 -154 21 -262 17 -372 -15 -10 -3 -23 40 -51 181 -20 102 -58 268 -84
369 -25 101 -44 186 -42 188 2 2 106 23 231 46 207 37 228 40 236 24 11 -19
39 -12 39 12 1 39 21 -25 68 -219z m5988 49 c418 -129 834 -199 1181 -199 209
0 318 12 466 49 59 16 107 26 107 24 0 -2 -18 -34 -41 -71 -142 -234 -361
-402 -639 -490 -257 -82 -562 -92 -903 -31 -198 36 -665 162 -683 185 -6 7
-14 11 -17 8 -9 -9 -77 10 -241 67 -80 28 -146 55 -146 60 0 5 18 9 39 9 49 0
180 25 243 46 47 15 51 15 216 -25 296 -71 472 -99 672 -108 80 -3 143 -3 140
0 -3 2 -59 10 -125 16 -138 13 -248 32 -390 67 -161 40 -355 96 -355 103 0 4
24 20 53 35 l52 29 330 -66 c446 -90 521 -99 800 -98 302 1 396 14 170 24
-191 8 -478 40 -613 67 -140 29 -401 101 -560 155 -8 3 7 28 43 70 30 36 61
74 67 85 16 26 18 26 134 -11z m-1456 -319 c58 -16 141 -36 185 -45 61 -14
111 -35 215 -91 74 -41 131 -74 127 -74 -22 0 -241 54 -326 82 -136 43 -461
186 -461 202 0 2 35 -7 78 -20 42 -14 124 -38 182 -54z m-4510 -365 c283 -53
1077 -308 1445 -465 193 -82 425 -213 425 -240 0 -18 -24 -11 -185 59 -815
350 -1608 607 -1968 637 -80 7 -100 19 -44 27 56 9 239 -2 327 -18z m5453 -42
c79 -39 255 -109 372 -147 318 -102 632 -159 930 -169 l70 -2 -76 -76 c-141
-141 -296 -223 -481 -255 -73 -13 -132 -15 -273 -11 -253 8 -467 47 -700 127
-100 34 -415 186 -415 200 0 5 5 12 10 15 23 14 7 25 -36 25 -34 0 -56 7 -90
31 -25 17 -44 32 -42 34 2 2 49 9 105 15 l102 11 133 -70 c130 -67 302 -141
329 -141 8 0 -22 15 -66 33 -102 41 -196 94 -269 151 -65 51 -68 43 26 76 35
13 41 12 162 -43 216 -98 502 -173 691 -182 l100 -5 -85 14 c-211 35 -435 107
-615 197 -66 33 -124 64 -128 69 -5 4 25 33 67 65 42 31 79 61 82 66 7 12 33
4 97 -28z m-5643 1 c210 -31 593 -139 985 -276 349 -123 1053 -411 1062 -434
13 -34 -86 -424 -108 -424 -5 0 -49 20 -98 45 -391 196 -882 391 -1260 500
-336 96 -576 142 -794 152 -164 7 -153 -6 -144 177 7 150 25 215 72 253 32 27
40 28 107 25 40 -1 120 -10 178 -18z m4105 -35 l20 -22 -33 19 c-18 10 -45 29
-60 42 l-27 23 40 -20 c22 -10 49 -29 60 -42z m-732 -70 c226 -619 496 -1179
767 -1586 86 -129 87 -132 62 -138 -13 -3 -26 -5 -27 -3 -2 2 -27 44 -56 93
-29 50 -116 198 -194 330 -351 594 -440 770 -546 1083 -79 232 -80 236 -62
262 21 30 33 22 56 -41z m267 -289 c169 -262 247 -364 354 -460 30 -26 24 -16
-24 40 -71 84 -189 260 -244 364 -34 66 -46 116 -27 116 4 0 48 -57 96 -127
49 -71 118 -161 154 -202 80 -90 276 -269 322 -295 27 -14 24 -9 -16 24 -79
68 -210 208 -273 292 -54 73 -174 270 -167 276 1 1 49 -20 105 -48 l103 -50
64 -102 c185 -296 320 -421 607 -566 55 -27 94 -52 88 -56 -7 -4 -65 -9 -129
-12 -274 -13 -521 64 -740 232 -136 104 -158 136 -260 375 -89 208 -183 443
-183 457 0 4 13 -13 29 -38 16 -25 79 -124 141 -220z m1003 200 c79 -13 112
-23 122 -36 30 -39 17 -42 -98 -20 -126 24 -154 34 -172 62 l-17 27 28 -8 c16
-4 78 -15 137 -25z m-4638 -284 c494 -76 1024 -254 1715 -576 226 -105 222
-102 209 -140 -6 -16 -13 -30 -15 -30 -3 0 -35 15 -72 34 -214 107 -781 333
-1117 445 -352 117 -638 186 -831 201 -71 6 -141 13 -156 16 -34 7 -96 63 -81
72 16 10 229 -4 348 -22z m5016 -45 c44 -38 104 -86 135 -106 140 -93 397
-189 662 -247 83 -18 152 -36 152 -39 0 -4 -10 -9 -22 -12 -13 -3 -72 -17
-133 -31 -222 -52 -435 -52 -695 0 -296 59 -525 166 -732 342 -81 70 -93 86
-55 77 12 -3 70 -7 129 -8 l106 -3 53 -48 c51 -46 139 -111 139 -103 0 2 -39
37 -87 78 l-87 74 56 8 56 8 119 -79 c65 -44 154 -98 198 -121 88 -46 87 -45
-59 50 -103 68 -196 144 -196 160 0 5 8 9 18 9 9 0 46 14 82 29 36 16 68 29
73 30 4 1 43 -30 88 -68z m-5062 -67 c6 -5 -60 -98 -107 -152 l-37 -43 -126
12 -127 12 82 94 81 94 115 -7 c63 -3 117 -8 119 -10z m146 -24 c95 -18 348
-85 490 -130 176 -56 367 -160 600 -328 101 -72 265 -201 265 -208 0 -6 3 -7
-195 106 -382 218 -657 335 -978 416 l-107 26 -55 -47 -55 -47 -97 17 c-54 9
-99 18 -101 20 -2 2 17 29 43 60 25 32 58 75 72 96 17 26 32 38 42 35 9 -3 43
-10 76 -16z m-245 -220 c445 -62 879 -212 1315 -453 287 -160 581 -357 571
-383 -5 -13 -85 -119 -177 -236 -16 -21 -18 -19 -110 62 -302 266 -636 443
-1179 623 -332 110 -604 172 -878 200 -73 8 -138 19 -144 25 -8 8 -7 17 5 35
43 66 130 123 224 147 49 12 202 4 373 -20z m-498 -222 c59 -6 108 -14 108
-17 -1 -7 -307 -206 -315 -205 -17 2 -185 70 -185 74 0 3 28 22 63 43 34 20
91 57 127 81 36 25 72 43 80 40 8 -3 63 -10 122 -16z m286 -39 c39 -7 72 -15
72 -18 0 -3 -18 -22 -41 -42 l-42 -35 49 -19 c93 -34 261 -124 365 -193 241
-162 472 -405 627 -663 60 -100 105 -189 99 -195 -2 -3 -31 28 -63 68 -188
234 -447 497 -575 585 -125 86 -363 197 -595 279 l-51 17 -67 -31 c-38 -18
-73 -32 -80 -32 -17 -1 -136 64 -133 73 5 16 333 227 347 223 8 -3 48 -10 88
-17z m-660 -163 c165 -57 396 -183 622 -341 380 -266 897 -703 1098 -928 99
-111 99 -111 60 -140 -54 -39 -337 -199 -347 -195 -5 1 -45 49 -90 105 -494
626 -1152 1157 -1631 1317 -58 19 -133 38 -167 42 -35 3 -63 10 -63 15 0 15
82 70 157 105 126 59 229 65 361 20z m4237 -96 c14 -46 131 -206 205 -284 212
-221 472 -325 708 -282 95 17 123 12 184 -33 173 -127 315 -498 294 -766 -14
-191 -93 -364 -190 -419 -40 -23 -46 -24 -431 -30 -481 -8 -2351 -41 -3439
-61 -445 -8 -811 -14 -812 -12 -2 2 81 31 185 66 324 107 564 221 791 375 351
238 742 615 1027 991 71 95 202 291 214 322 7 20 12 17 77 -47 83 -81 169
-126 281 -146 220 -39 418 4 646 141 124 74 188 125 218 171 25 39 33 42 42
14z m-4619 -100 c92 -22 166 -49 160 -59 -2 -3 -59 -40 -125 -81 -90 -56 -119
-79 -114 -90 3 -8 8 -31 10 -50 9 -71 -83 -155 -244 -224 -200 -85 -670 -221
-731 -211 -80 14 -74 18 73 56 284 71 723 241 778 300 66 72 3 220 -108 250
l-40 11 60 27 c33 14 89 40 125 58 36 17 67 32 70 32 3 1 41 -8 86 -19z m342
-138 c65 -36 107 -71 195 -161 154 -158 358 -405 533 -646 134 -185 127 -181
-52 30 -158 186 -381 413 -468 479 -128 96 -346 236 -376 242 -70 15 -107 -54
-95 -181 6 -61 4 -78 -14 -112 -56 -111 -263 -215 -564 -283 l-98 -22 -147 27
c-81 15 -148 28 -150 30 -1 1 50 17 115 34 183 51 436 137 531 182 94 45 180
118 207 175 9 20 15 53 14 75 l-3 40 119 75 c94 58 125 73 145 69 14 -4 62
-27 108 -53z m-621 -1 c78 -36 118 -147 73 -204 -13 -16 -70 -47 -163 -86
-291 -123 -502 -194 -707 -235 l-117 -24 -219 34 c-260 40 -253 38 -300 66
l-37 22 69 18 c361 97 892 270 1144 372 149 60 192 66 257 37z m-1420 -499
c21 -11 92 -27 158 -36 387 -55 1060 -177 1640 -297 466 -96 654 -141 756
-180 175 -68 400 -256 472 -395 20 -40 37 -75 37 -79 0 -4 -13 -5 -30 -2 -21
5 -32 2 -38 -9 -5 -9 -63 -32 -135 -54 -192 -58 -177 -58 -212 2 -45 77 -107
107 -336 163 -482 117 -1484 309 -2167 414 -145 23 -276 48 -292 56 -38 19
-55 47 -69 110 -20 84 11 178 95 291 42 57 40 57 121 16z m-84 -749 c111 -73
343 -171 524 -222 94 -27 134 -32 308 -41 519 -26 1610 -22 1773 7 29 5 38 0
73 -37 46 -48 47 -70 4 -82 -27 -7 -1173 -33 -1735 -39 -207 -3 -219 -2 -320
25 -207 54 -359 120 -515 223 -149 99 -255 209 -255 266 0 16 7 12 38 -18 20
-21 68 -57 105 -82z m6573 -443 c126 -32 203 -78 431 -259 461 -365 732 -613
821 -751 77 -118 102 -260 67 -376 -20 -67 -57 -101 -125 -114 -91 -17 -161
-3 -365 75 -268 102 -499 169 -730 211 -77 14 -148 19 -305 18 -195 0 -209 -1
-294 -27 -91 -28 -203 -81 -347 -162 -215 -123 -402 -159 -620 -120 -111 19
-217 56 -428 150 -284 125 -414 161 -615 172 -122 6 -240 -10 -356 -47 -36
-12 -162 -68 -280 -126 -280 -135 -323 -147 -545 -146 -201 0 -224 5 -624 137
-379 124 -475 145 -674 145 -190 0 -296 -24 -852 -196 -211 -65 -225 -68 -325
-68 -90 -1 -112 2 -151 22 -163 80 -219 271 -132 449 30 61 84 119 210 227 85
72 273 269 449 469 55 63 72 77 89 72 11 -4 96 -13 189 -21 94 -8 172 -16 174
-19 2 -2 -115 -131 -259 -286 -145 -155 -279 -299 -296 -321 -54 -67 -53 -138
2 -174 42 -27 112 -14 505 100 201 57 532 152 735 210 204 59 394 113 423 122
89 25 191 135 195 210 l3 39 67 8 68 8 57 -59 c34 -35 81 -70 117 -88 57 -28
66 -29 185 -28 136 1 178 8 720 124 413 88 765 167 1212 271 360 83 417 94
678 124 157 19 299 36 315 38 17 2 143 5 281 6 221 1 260 -1 330 -19z m-1991
-156 c-31 -12 -875 -195 -1270 -275 -207 -42 -356 -46 -425 -12 -53 27 -105
72 -93 83 4 4 177 26 383 49 206 23 596 69 865 100 456 54 565 66 540 55z
m-4252 -39 c98 -15 300 -75 334 -100 17 -13 17 -14 0 -33 -17 -19 -18 -19 -85
5 -291 106 -591 91 -809 -38 -76 -46 -179 -151 -226 -230 -113 -193 -129 -475
-40 -722 148 -414 520 -747 953 -855 141 -35 352 -36 473 -4 186 51 360 184
439 337 67 130 83 200 83 370 0 88 4 153 10 157 6 4 20 8 32 8 19 0 23 -8 30
-57 14 -102 6 -271 -16 -357 -177 -674 -1087 -747 -1715 -137 -202 196 -335
423 -397 677 -31 125 -32 335 -1 447 107 391 476 601 935 532z m7177 -14 c543
-124 1007 -593 1106 -1118 20 -106 14 -305 -11 -398 -63 -231 -239 -418 -466
-493 -227 -75 -453 -65 -721 31 -258 92 -514 286 -691 522 -65 86 -179 298
-193 358 -6 27 -5 28 25 25 30 -3 34 -9 65 -86 206 -511 797 -888 1290 -823
188 25 324 89 441 207 228 228 264 600 94 963 -136 290 -416 556 -715 678
-165 67 -260 86 -441 88 -153 1 -165 2 -194 24 -17 13 -27 27 -22 31 25 25
309 19 433 -9z m-7060 -114 c52 -14 112 -32 134 -41 l38 -16 -73 -81 c-67 -75
-75 -80 -103 -75 -17 3 -79 9 -137 12 -191 12 -332 -37 -449 -155 -105 -106
-150 -223 -150 -391 1 -427 402 -848 857 -900 188 -21 361 30 479 142 108 102
153 204 163 368 l6 105 65 17 c36 9 79 17 96 17 29 1 32 -2 38 -36 34 -207
-40 -457 -177 -596 -369 -374 -1105 -217 -1512 325 -87 114 -174 286 -206 403
-30 112 -37 316 -15 418 58 258 262 450 532 502 112 21 291 13 414 -18z m7100
0 c412 -106 782 -447 914 -842 107 -318 46 -625 -162 -816 -405 -370 -1200
-131 -1562 471 -48 80 -107 207 -99 215 3 2 49 -5 104 -16 55 -10 101 -19 102
-19 2 0 23 -39 47 -87 165 -329 508 -553 845 -553 181 0 309 47 416 154 364
365 36 1093 -570 1266 -38 11 -79 20 -90 20 -25 0 -50 18 -193 136 -61 51
-108 95 -104 99 15 16 256 -4 352 -28z m-5938 -31 c244 -24 530 -47 746 -61
56 -4 102 -11 102 -17 0 -15 -51 -77 -81 -99 -31 -22 -1583 -469 -1630 -469
-19 0 -29 5 -29 15 0 17 20 39 348 393 182 195 250 262 267 262 13 0 137 -11
277 -24z m-1366 -298 l43 -73 -27 -23 c-15 -13 -52 -46 -83 -72 -112 -97 -172
-222 -172 -360 0 -160 69 -274 207 -345 l79 -40 116 1 c114 0 119 1 336 68
121 38 228 71 238 73 12 4 17 0 17 -16 0 -17 16 -29 80 -58 57 -26 80 -41 80
-54 0 -21 -37 -120 -50 -133 -5 -5 -42 12 -85 38 l-77 47 -62 -57 c-33 -32
-67 -63 -75 -70 -11 -10 -6 -24 32 -86 35 -55 43 -74 33 -80 -29 -16 -133 -38
-182 -38 l-52 0 -22 63 c-13 34 -28 67 -34 74 -6 7 -62 23 -124 36 l-113 25
-10 -27 c-6 -14 -13 -39 -16 -54 -3 -16 -12 -31 -19 -34 -17 -6 -174 87 -174
104 0 7 11 37 24 66 l23 54 -79 91 c-44 51 -88 92 -97 92 -10 0 -41 -7 -69
-15 -29 -9 -57 -13 -64 -9 -15 10 -80 153 -74 163 3 5 31 12 61 16 39 4 55 11
55 21 0 51 -25 211 -34 220 -6 6 -37 21 -69 34 -64 25 -62 17 -36 110 17 66
19 67 104 27 42 -21 80 -35 84 -32 4 2 34 38 65 80 l59 76 -47 58 c-25 33 -46
62 -46 64 0 8 110 48 155 56 22 4 44 4 49 0 5 -5 29 -41 52 -81z m7486 1 c46
-23 92 -48 104 -56 l22 -14 -18 -67 c-10 -37 -16 -70 -12 -73 4 -3 47 -43 95
-87 l88 -82 51 26 c50 25 52 26 66 8 23 -31 105 -204 99 -210 -3 -3 -38 -11
-77 -17 l-72 -11 6 -75 c14 -159 8 -149 95 -188 42 -20 78 -37 80 -39 4 -4
-36 -124 -48 -143 -7 -11 -24 -5 -87 32 l-78 46 -69 -62 c-38 -33 -71 -66 -74
-73 -2 -6 15 -41 38 -78 34 -55 40 -69 28 -77 -30 -19 -97 -33 -163 -33 l-69
-1 -26 70 -27 70 -114 26 c-63 14 -118 24 -122 22 -4 -2 -15 -28 -24 -58 -10
-30 -22 -55 -27 -55 -13 0 -124 63 -156 88 l-23 19 26 51 c14 28 26 56 26 62
0 6 -36 53 -81 104 l-81 94 -62 -19 c-33 -10 -66 -19 -72 -19 -13 0 -69 108
-61 116 9 9 267 -71 427 -133 216 -82 263 -95 365 -96 80 -1 97 2 146 26 96
47 139 136 139 287 0 180 -68 306 -274 510 -89 88 -110 122 -89 143 11 12 21
8 105 -34z m-3529 -634 c9 -8 21 -32 28 -52 6 -21 27 -69 46 -108 177 -355
535 -640 915 -727 131 -30 340 -30 452 1 371 100 575 423 523 829 l-8 62 34 0
c32 0 35 -3 41 -37 4 -21 9 -83 13 -138 19 -319 -129 -591 -391 -720 -140 -70
-223 -88 -396 -88 -214 0 -360 36 -575 143 -261 130 -494 353 -641 612 -32 56
-104 217 -104 232 0 12 49 5 63 -9z m-325 -75 c18 -100 9 -273 -18 -368 -57
-202 -193 -366 -375 -454 -276 -131 -611 -111 -950 57 -309 154 -555 402 -701
708 -35 74 -40 93 -28 95 40 9 59 -8 86 -76 103 -255 406 -561 679 -686 308
-140 617 -150 866 -29 109 53 243 186 296 294 61 125 79 210 76 379 -1 80 -1
149 0 153 0 5 13 7 29 5 25 -3 28 -7 40 -78z m499 39 c99 -31 102 -33 120 -73
35 -80 132 -212 215 -292 129 -126 246 -196 408 -249 111 -36 301 -46 400 -21
243 63 395 252 405 508 l3 81 65 28 c36 16 79 32 96 35 28 6 30 4 37 -32 14
-66 8 -244 -10 -314 -55 -219 -216 -395 -425 -465 -426 -145 -997 96 -1297
547 -44 66 -134 245 -134 267 0 16 3 15 117 -20z m-611 -35 c3 -30 4 -104 2
-162 -15 -340 -246 -586 -594 -633 -455 -60 -980 249 -1220 718 -24 48 -42 88
-41 90 2 1 52 -12 111 -29 73 -22 113 -39 122 -52 8 -12 38 -57 66 -101 133
-203 370 -370 604 -426 107 -25 261 -27 348 -4 238 63 388 249 400 498 2 43 6
80 8 83 6 6 171 74 180 74 4 0 10 -25 14 -56z m877 -67 c37 -16 34 -24 -14
-37 -45 -12 -45 -13 -74 42 -21 38 -19 40 23 22 20 -9 49 -21 65 -27z m-2404
-18 c24 -9 29 -14 19 -20 -21 -14 -37 -10 -48 11 -13 23 -13 23 29 9z m1234
-75 c28 -14 37 -24 37 -43 0 -25 -44 -131 -54 -131 -2 0 -39 21 -82 46 l-77
45 -66 -63 c-36 -35 -68 -67 -72 -72 -4 -5 13 -41 37 -80 34 -55 41 -72 30
-78 -29 -16 -133 -38 -182 -38 l-52 0 -21 63 c-12 34 -25 67 -29 73 -4 6 -60
23 -125 37 l-117 25 -18 -59 c-9 -32 -21 -59 -26 -59 -14 0 -119 58 -150 84
l-30 23 26 60 26 60 -45 52 c-25 29 -43 54 -40 57 3 3 40 -6 84 -19 137 -43
190 -51 368 -50 190 0 260 13 404 76 83 37 80 37 174 -9z m2331 16 c74 -34 79
-46 49 -122 -27 -71 -29 -72 -92 -37 -31 18 -66 38 -78 46 -20 14 -26 10 -97
-57 l-75 -71 45 -69 c24 -38 44 -71 44 -73 0 -14 -113 -41 -174 -41 l-70 -1
-27 70 -26 70 -99 22 c-143 32 -140 33 -160 -32 -10 -30 -23 -55 -29 -55 -18
0 -166 90 -171 105 -3 7 6 36 21 65 29 58 32 49 -43 134 -23 27 -41 51 -38 53
2 2 32 -8 67 -22 112 -46 246 -76 366 -82 171 -9 314 21 458 95 33 17 61 31
61 32 1 0 31 -14 68 -30z"/>
<path d="M9565 9264 c-121 -24 -473 -73 -660 -91 -143 -13 -292 -17 -725 -18
-584 -1 -602 -2 -742 -55 -201 -75 -422 -331 -455 -525 l-5 -30 71 3 c116 6
276 -39 861 -241 405 -139 803 -226 1070 -232 80 -2 127 -1 105 1 -192 20
-257 30 -375 60 -183 47 -456 140 -680 231 -102 42 -241 95 -310 119 -69 23
-116 43 -105 43 32 1 218 -43 432 -103 297 -83 565 -134 903 -171 185 -21 699
-32 726 -17 15 9 5 11 -51 12 -174 1 -595 49 -840 96 -270 52 -387 86 -626
183 -352 142 -566 168 -832 100 -44 -11 -81 -18 -83 -16 -7 7 209 104 281 126
165 52 360 72 880 91 286 10 492 30 640 61 l90 18 -70 -6 c-263 -21 -770 -18
-1032 7 -238 23 -435 -10 -632 -105 -63 -31 -116 -54 -118 -52 -6 7 54 55 115
90 191 111 449 170 798 182 93 3 221 10 284 16 255 23 702 101 962 168 217 57
288 88 123 55z"/>
<path d="M3560 9121 c0 -30 11 -51 25 -51 21 0 26 16 15 44 -11 30 -40 35 -40
7z"/>
<path d="M3460 9100 c-22 -17 -23 -21 -10 -34 13 -13 18 -13 40 4 22 17 23 21
10 34 -13 13 -18 13 -40 -4z"/>
<path d="M3360 9042 c-20 -16 -21 -19 -5 -32 14 -11 19 -11 37 7 11 12 17 26
14 32 -10 15 -20 14 -46 -7z"/>
<path d="M3266 8971 c-15 -16 -15 -19 -1 -31 21 -18 61 16 44 37 -15 17 -23
17 -43 -6z"/>
<path d="M3186 8895 c-17 -26 -14 -45 7 -45 7 0 18 10 25 21 12 18 11 24 -1
36 -12 12 -16 11 -31 -12z"/>
<path d="M3637 8904 c-4 -4 -7 -22 -7 -41 0 -27 4 -33 21 -33 17 0 20 5 17 37
-3 35 -17 51 -31 37z"/>
<path d="M3665 8760 c-11 -18 6 -50 26 -50 21 0 22 3 13 38 -7 23 -28 30 -39
12z"/>
<path d="M3697 8642 c-7 -10 4 -62 12 -62 20 1 32 19 25 43 -6 25 -27 36 -37
19z"/>
<path d="M3731 8518 c5 -18 9 -34 9 -34 0 -1 9 0 19 3 27 7 13 57 -17 61 -19
3 -20 1 -11 -30z"/>
<path d="M6280 5899 c-55 -25 -95 -62 -123 -114 -18 -33 -22 -57 -22 -135 0
-89 2 -99 34 -158 115 -212 383 -260 498 -88 57 85 67 160 33 267 -59 189
-263 299 -420 228z m187 -44 c71 -21 123 -63 158 -126 26 -48 30 -64 30 -139
0 -162 -63 -230 -213 -230 -90 0 -131 19 -195 90 -147 163 -77 420 114 420 30
0 78 -7 106 -15z"/>
<path d="M3736 8281 c-3 -4 3 -39 14 -77 16 -55 66 -267 95 -401 4 -15 10 -20
24 -16 18 4 17 10 -10 141 -60 282 -99 393 -123 353z"/>
<path d="M3671 8251 c-11 -7 -3 -51 48 -245 33 -129 61 -237 61 -240 0 -2 9
-2 20 1 13 4 19 11 16 22 -3 9 -19 72 -36 141 -42 169 -82 313 -89 322 -3 4
-12 3 -20 -1z"/>
<path d="M3576 8221 c-6 -9 52 -217 105 -378 25 -74 35 -93 50 -93 10 0 19 3
19 6 0 4 -20 68 -44 143 -24 75 -56 180 -71 234 -26 89 -43 115 -59 88z"/>
<path d="M3497 8193 c-2 -5 30 -113 71 -240 71 -218 88 -254 107 -223 10 17
-144 470 -160 470 -8 0 -16 -3 -18 -7z"/>
<path d="M3425 8140 c-3 -5 21 -90 54 -187 82 -241 82 -243 104 -243 23 0 27
-17 -58 233 -64 189 -82 225 -100 197z"/>
<path d="M3351 8111 c-11 -7 -11 -15 -1 -47 25 -78 132 -359 140 -368 5 -5 15
-6 23 -3 12 5 5 32 -38 144 -29 76 -63 171 -76 211 -24 75 -25 77 -48 63z"/>
<path d="M3270 8071 c0 -42 139 -381 156 -381 25 0 23 18 -20 121 -24 57 -55
141 -70 187 -22 65 -32 82 -47 82 -10 0 -19 -4 -19 -9z"/>
<path d="M3206 8051 c-3 -5 6 -40 20 -77 43 -116 117 -299 123 -306 3 -4 13
-3 21 2 13 8 13 14 -2 52 -10 24 -43 109 -75 191 -52 133 -71 164 -87 138z"/>
<path d="M3144 8016 c-6 -15 120 -351 135 -360 4 -3 13 -1 20 4 11 6 -2 46
-57 186 -39 98 -76 180 -82 182 -5 2 -13 -3 -16 -12z"/>
<path d="M3977 7604 c-12 -12 15 -64 34 -64 16 0 18 5 13 28 -4 15 -9 30 -11
35 -5 8 -27 9 -36 1z"/>
<path d="M4023 7464 c-13 -6 -7 -62 8 -78 17 -19 32 11 25 48 -7 36 -10 39
-33 30z"/>
<path d="M4047 7322 c-16 -3 -17 -20 -2 -69 7 -22 35 -2 35 26 0 34 -11 48
-33 43z"/>
<path d="M4065 7143 c8 -46 21 -61 36 -46 7 7 9 25 5 47 -5 28 -12 36 -28 36
-18 0 -19 -4 -13 -37z"/>
<path d="M4103 7043 c-7 -3 -13 -18 -13 -34 0 -22 5 -29 20 -29 15 0 20 7 20
29 0 32 -7 41 -27 34z"/>
<path d="M7048 4821 c-149 -48 -232 -152 -279 -348 -13 -52 -22 -123 -22 -173
-1 -71 3 -94 25 -142 52 -112 117 -130 483 -130 445 0 704 52 821 166 59 57
75 105 54 156 -31 75 -228 221 -440 326 -293 146 -496 191 -642 145z m201 -67
c335 -114 602 -247 713 -354 55 -53 62 -90 27 -146 -29 -48 -138 -98 -269
-125 -132 -27 -391 -31 -688 -10 l-203 15 -21 40 c-51 99 -3 378 85 494 51 67
145 120 216 121 19 1 82 -15 140 -35z"/>
<path d="M6255 4809 c-170 -39 -455 -164 -724 -316 -270 -153 -485 -298 -590
-398 -95 -91 -113 -141 -66 -185 37 -35 176 -44 460 -31 477 24 821 77 925
145 78 51 212 289 251 445 39 153 8 293 -71 333 -38 20 -118 22 -185 7z m154
-38 c11 -7 13 -32 8 -133 -9 -181 -46 -307 -113 -387 -41 -50 -187 -168 -226
-184 -94 -39 -318 -70 -643 -87 -110 -6 -276 -15 -369 -20 -94 -5 -172 -7
-175 -4 -3 2 4 21 14 41 73 134 715 531 1130 698 167 67 334 101 374 76z"/>
<path d="M714 4668 c-9 -14 31 -48 57 -48 29 0 23 28 -11 45 -35 18 -37 18
-46 3z"/>
<path d="M860 4615 c0 -18 41 -37 54 -25 5 5 6 16 3 24 -8 21 -57 21 -57 1z"/>
<path d="M980 4581 c0 -23 49 -36 57 -15 7 20 -6 34 -33 34 -17 0 -24 -6 -24
-19z"/>
<path d="M1106 4555 c-3 -9 1 -18 9 -21 23 -9 50 0 53 19 3 13 -3 17 -26 17
-18 0 -32 -6 -36 -15z"/>
<path d="M1234 4536 c-8 -21 -6 -23 29 -31 23 -6 27 -4 27 14 0 12 -4 21 -9
21 -5 0 -16 3 -25 6 -10 4 -18 0 -22 -10z"/>
<path d="M1370 4512 c0 -25 38 -41 51 -21 13 20 11 29 -5 29 -8 0 -21 3 -30 6
-11 4 -16 0 -16 -14z"/>
<path d="M1476 4493 c-8 -20 10 -33 45 -33 28 0 48 28 26 35 -48 14 -65 14
-71 -2z"/>
<path d="M1624 4478 c-4 -6 1 -17 11 -25 24 -17 34 -17 42 3 10 26 -38 47 -53
22z"/>
<path d="M1743 4454 c-8 -21 6 -34 38 -34 22 0 29 5 29 19 0 23 -59 36 -67 15z"/>
<path d="M1887 4427 c-8 -21 1 -27 40 -27 27 0 34 4 31 18 -4 22 -63 30 -71 9z"/>
<path d="M2010 4400 c0 -15 7 -20 25 -20 18 0 25 5 25 20 0 15 -7 20 -25 20
-18 0 -25 -5 -25 -20z"/>
<path d="M2122 4383 c2 -10 16 -20 35 -24 25 -5 32 -3 36 12 5 19 -11 29 -50
29 -18 0 -24 -5 -21 -17z"/>
<path d="M2250 4370 c0 -13 7 -20 19 -20 11 0 26 -3 35 -6 11 -4 16 0 16 14 0
21 -18 32 -51 32 -12 0 -19 -7 -19 -20z"/>
<path d="M2392 4343 c2 -12 13 -18 33 -18 20 0 31 6 33 18 3 14 -4 17 -33 17
-29 0 -36 -3 -33 -17z"/>
<path d="M2522 4323 c2 -11 14 -19 31 -21 22 -3 27 1 27 17 0 17 -6 21 -31 21
-24 0 -30 -4 -27 -17z"/>
<path d="M2640 4301 c0 -17 6 -21 36 -21 28 0 35 3 32 18 -2 11 -14 18 -36 20
-27 3 -32 0 -32 -17z"/>
<path d="M2762 4273 c2 -12 12 -18 28 -18 16 0 26 6 28 18 3 13 -3 17 -28 17
-25 0 -31 -4 -28 -17z"/>
<path d="M2866 4264 c-8 -21 -9 -21 37 -29 33 -7 37 -5 37 14 0 11 -6 21 -12
21 -7 0 -23 3 -34 6 -15 4 -23 0 -28 -12z"/>
<path d="M3012 4226 c4 -30 68 -37 68 -8 0 15 -8 21 -35 24 -32 4 -36 2 -33
-16z"/>
<path d="M3140 4201 c0 -26 56 -47 65 -24 7 20 -2 28 -37 37 -23 5 -28 3 -28
-13z"/>
<path d="M3266 4155 c-8 -21 53 -53 65 -33 6 9 2 19 -12 31 -26 21 -45 22 -53
2z"/>
<path d="M3380 4090 c0 -11 12 -26 29 -34 26 -14 30 -14 35 0 9 22 9 22 -24
39 -37 19 -40 19 -40 -5z"/>
<path d="M3494 4018 c-8 -13 30 -48 52 -48 20 0 17 24 -4 43 -22 20 -38 22
-48 5z"/>
<path d="M3607 3926 c-3 -8 5 -23 17 -35 21 -19 24 -20 36 -6 11 13 10 19 -5
35 -21 23 -41 26 -48 6z"/>
<path d="M3705 3829 c-4 -5 1 -19 11 -30 19 -22 23 -22 44 -9 12 7 12 12 -4
29 -21 23 -41 27 -51 10z"/>
<path d="M6880 3519 c-380 -36 -1304 -238 -2545 -555 -836 -214 -2119 -557
-2575 -689 -140 -40 -308 -88 -373 -107 -64 -18 -117 -36 -117 -40 0 -17 30
-9 530 135 364 105 392 111 560 110 176 0 251 -17 650 -148 389 -127 424 -135
627 -135 236 0 306 21 618 178 88 45 201 94 250 109 82 25 105 27 260 27 240
1 343 -25 660 -169 288 -130 393 -158 595 -158 209 1 234 9 621 210 99 51 161
76 225 91 306 71 635 12 1149 -207 169 -72 218 -88 189 -62 -18 16 -371 160
-501 205 -268 91 -511 128 -706 107 -152 -16 -266 -56 -440 -153 -254 -142
-348 -172 -542 -172 -185 0 -297 30 -585 159 -293 130 -406 162 -607 172 -230
11 -328 -16 -650 -175 -268 -132 -322 -146 -569 -140 -207 6 -207 6 -589 133
-137 46 -284 93 -325 104 -93 26 -255 51 -335 52 l-60 0 85 24 c760 211 2060
550 2765 720 992 241 1759 386 1901 359 20 -4 34 -2 34 4 0 21 -58 25 -200 11z"/>
<path d="M6945 3330 c-27 -4 -306 -65 -620 -134 -1229 -269 -1466 -324 -1521
-351 -95 -47 -131 -117 -81 -162 43 -39 133 -55 417 -74 145 -10 414 -10 1255
-1 1220 14 1252 15 1297 46 82 55 103 156 52 252 -79 148 -324 338 -516 399
-86 27 -207 38 -283 25z m200 -85 c133 -28 284 -116 419 -244 91 -87 126 -142
126 -198 0 -33 -6 -50 -23 -67 -21 -21 -36 -24 -138 -30 -207 -10 -2147 -29
-2297 -22 -253 12 -442 36 -442 57 0 16 93 56 170 72 41 9 410 91 820 181 823
182 1150 253 1195 259 61 8 102 6 170 -8z"/>
<path d="M1085 2533 c-34 -9 -74 -43 -91 -75 -25 -49 -15 -138 22 -190 59 -85
188 -123 262 -78 115 70 87 250 -50 321 -40 21 -110 31 -143 22z m96 -45 c76
-25 129 -94 129 -166 0 -37 -6 -50 -34 -78 -28 -28 -42 -34 -75 -34 -66 0
-136 43 -167 102 -8 15 -14 49 -14 76 0 40 5 53 28 74 43 40 74 46 133 26z"/>
<path d="M1120 2436 c-31 -11 -36 -18 -44 -61 -10 -48 -10 -48 30 -82 35 -31
43 -33 84 -28 56 8 61 13 67 68 5 42 4 45 -39 80 -50 41 -49 41 -98 23z m99
-50 c19 -20 22 -31 17 -59 -6 -30 -11 -35 -43 -40 -30 -5 -43 -1 -70 19 -18
14 -33 33 -33 42 0 41 13 62 44 71 35 9 51 3 85 -33z"/>
<path d="M3434 2530 c-42 -13 -90 -69 -98 -114 -21 -112 94 -246 211 -246 155
0 214 162 106 291 -49 58 -150 90 -219 69z m114 -45 c113 -48 158 -180 82
-247 -75 -68 -216 -5 -251 112 -17 55 4 109 51 132 43 22 70 22 118 3z"/>
<path d="M3482 2437 c-41 -15 -52 -32 -52 -78 0 -30 7 -43 36 -68 33 -29 40
-31 82 -25 26 3 50 9 53 13 4 3 10 26 13 51 6 44 5 46 -38 83 -49 41 -47 40
-94 24z m80 -40 c34 -29 36 -35 30 -67 -7 -30 -13 -36 -46 -43 -34 -8 -40 -7
-67 19 -21 20 -29 37 -29 61 0 29 5 36 33 48 41 18 36 19 79 -18z"/>
<path d="M5773 2519 c-44 -22 -83 -82 -83 -128 0 -45 23 -101 59 -142 90 -107
243 -106 299 2 53 100 -13 230 -140 275 -55 19 -85 18 -135 -7z m142 -38 c107
-48 146 -182 74 -247 -32 -29 -125 -26 -171 5 -102 70 -116 207 -25 246 43 19
74 18 122 -4z"/>
<path d="M5835 2436 c-38 -12 -40 -15 -45 -59 -6 -44 -4 -49 31 -83 34 -34 38
-35 87 -28 54 7 58 11 64 71 2 26 -5 40 -37 73 -43 44 -42 43 -100 26z m84
-40 c26 -27 32 -40 29 -67 -3 -29 -7 -34 -40 -42 -32 -8 -42 -5 -67 15 -24 18
-30 31 -30 61 -1 33 3 40 32 52 42 19 38 20 76 -19z"/>
<path d="M8144 2529 c-41 -12 -91 -69 -99 -112 -20 -106 81 -234 193 -245 141
-13 219 100 159 231 -46 101 -154 155 -253 126z m114 -44 c113 -48 158 -180
82 -247 -56 -51 -148 -33 -212 42 -44 51 -56 102 -34 154 25 59 93 80 164 51z"/>
<path d="M8195 2438 c-47 -17 -55 -27 -55 -73 0 -37 5 -48 36 -74 33 -29 40
-31 82 -25 26 4 50 8 53 10 3 2 9 24 13 50 6 45 5 48 -37 85 -46 42 -48 42
-92 27z m77 -41 c34 -29 37 -35 32 -68 -6 -34 -10 -37 -47 -43 -35 -6 -44 -3
-69 21 -20 19 -28 36 -28 60 0 29 5 36 33 48 41 18 36 19 79 -18z"/>
</g>
</svg>
