<?xml version="1.0" standalone="no"?>
<!DOCTYPE svg PUBLIC "-//W3C//DTD SVG 20010904//EN"
 "http://www.w3.org/TR/2001/REC-SVG-20010904/DTD/svg10.dtd">
<svg version="1.0" xmlns="http://www.w3.org/2000/svg"
 width="1232.000000pt" height="1232.000000pt" viewBox="0 0 1232.000000 1232.000000"
 preserveAspectRatio="xMidYMid meet">
<metadata>
Created by potrace 1.14, written by Peter Selinger 2001-2017
</metadata>
<g transform="translate(0.000000,1232.000000) scale(0.100000,-0.100000)"
fill="#000000" stroke="none">
<path d="M11681 11088 c-25 -115 -149 -337 -280 -501 -251 -315 -670 -631
-1132 -855 -3 -1 -12 26 -18 60 -30 157 -125 463 -141 453 -4 -2 -10 -46 -13
-96 -7 -114 -35 -174 -120 -266 -181 -193 -512 -330 -967 -400 -141 -21 -481
-24 -615 -5 -49 7 -191 31 -315 52 -291 52 -444 69 -665 77 -281 9 -424 -15
-590 -100 -96 -49 -215 -163 -259 -247 -16 -30 -30 -56 -32 -58 -1 -2 -42 26
-90 62 -115 85 -291 173 -584 289 -403 161 -617 226 -895 269 -187 29 -596 31
-778 5 -270 -40 -445 -121 -525 -243 -17 -25 -43 -77 -58 -115 -27 -68 -27
-69 -79 -84 -29 -8 -81 -34 -115 -57 -80 -53 -230 -196 -326 -310 l-73 -88 45
-101 c30 -67 68 -188 114 -362 37 -144 70 -270 72 -280 2 -13 -16 -25 -77 -52
-136 -59 -137 -69 -49 -288 38 -93 76 -182 85 -197 26 -42 80 -63 143 -55 l54
7 16 -53 c34 -120 105 -423 131 -562 l28 -148 -32 -62 c-39 -77 -55 -198 -45
-345 5 -80 11 -108 27 -128 17 -23 18 -28 6 -51 -25 -48 -232 -248 -279 -271
-26 -12 -70 -47 -99 -77 -52 -54 -161 -130 -331 -232 -68 -41 -100 -53 -158
-62 -130 -20 -283 -99 -327 -168 -15 -25 -44 -43 -125 -79 -393 -174 -864
-337 -1346 -465 -180 -48 -174 -44 -268 -184 -87 -130 -107 -204 -91 -341 5
-43 2 -90 -10 -155 -19 -106 -15 -151 20 -227 93 -200 501 -436 888 -512 38
-8 57 -16 57 -26 0 -8 12 -38 26 -66 l26 -51 -30 -29 c-28 -29 -31 -29 -58
-15 -52 27 -227 84 -314 103 -127 27 -356 25 -473 -4 -322 -80 -548 -310 -618
-627 -19 -88 -17 -303 5 -403 55 -256 185 -496 375 -694 248 -259 505 -405
832 -475 111 -23 334 -23 436 0 327 75 552 288 633 602 23 88 31 266 17 368
l-9 58 53 -3 52 -3 38 -94 c168 -413 568 -769 1006 -896 436 -127 852 -14
1069 291 116 162 170 390 144 604 -6 52 -12 104 -13 115 -2 18 4 20 51 20 l53
0 32 -85 c261 -690 1059 -1145 1672 -953 279 88 469 286 546 568 18 65 22 107
22 230 1 83 -4 169 -10 192 l-11 43 68 0 68 0 17 -53 c28 -85 99 -226 163
-322 340 -516 981 -803 1487 -668 236 63 435 229 531 443 68 149 92 366 61
545 -119 681 -830 1261 -1497 1221 -58 -3 -131 -12 -163 -20 l-58 -14 -62 50
c-34 28 -86 64 -115 80 -29 17 -51 32 -49 35 3 2 193 8 423 12 469 8 448 5
528 84 127 128 194 369 167 602 -28 248 -127 473 -278 636 -108 116 -242 314
-395 584 -99 174 -161 295 -155 302 3 2 33 -16 68 -40 140 -96 270 -151 436
-184 120 -23 349 -23 460 0 92 19 210 61 197 70 -5 3 -56 24 -114 47 -260 102
-475 243 -592 386 -69 86 -171 235 -164 241 3 3 50 -36 104 -87 233 -216 442
-331 735 -406 409 -104 779 -80 1159 75 144 58 143 57 47 70 -458 65 -836 182
-1019 317 -137 101 -225 189 -127 129 160 -100 463 -220 669 -264 248 -53 532
-74 702 -52 221 30 405 121 567 280 64 63 179 219 179 242 0 4 -30 0 -67 -8
-95 -21 -366 -12 -533 17 -259 45 -582 139 -805 235 -199 85 -195 92 21 29
212 -61 447 -118 564 -138 575 -96 1054 13 1382 314 83 76 185 209 239 313 39
76 93 216 85 224 -2 2 -32 -14 -67 -37 -244 -158 -779 -176 -1380 -46 -193 42
-529 135 -529 147 0 13 19 11 153 -11 255 -42 405 -54 677 -54 344 -1 534 27
769 113 423 155 681 528 741 1076 13 111 7 362 -8 377 -4 4 -32 -35 -62 -88
-117 -207 -295 -332 -616 -433 -151 -48 -325 -84 -514 -106 -157 -19 -708 -31
-815 -18 l-70 9 115 28 c342 85 662 197 840 293 513 277 783 688 807 1227 12
279 -44 570 -181 936 -52 139 -56 145 -84 148 -29 3 -31 1 -41 -50z m107 -281
c190 -578 157 -1060 -98 -1443 -78 -117 -242 -275 -380 -366 -139 -93 -342
-192 -505 -248 -98 -34 -421 -126 -537 -154 l-28 -6 0 100 c0 55 -3 100 -6
100 -3 0 -30 -22 -59 -49 -87 -79 -269 -164 -453 -210 -158 -40 -287 -54 -512
-54 -223 0 -390 18 -570 61 l-75 18 195 7 c342 11 618 56 940 152 63 19 198
55 300 80 244 59 415 108 504 145 145 61 353 196 471 306 64 60 59 60 -15 2
-139 -110 -331 -216 -486 -267 -78 -26 -335 -87 -448 -106 l-39 -6 43 52 c24
28 56 67 70 87 21 29 38 38 110 59 160 46 348 150 555 306 180 137 373 364
511 602 27 48 22 44 -111 -77 -260 -236 -463 -384 -660 -481 -105 -52 -271
-114 -281 -105 -2 3 1 49 6 104 6 54 10 124 8 154 l-2 55 74 39 c414 214 727
432 971 675 182 182 339 396 410 556 18 41 36 72 40 70 4 -3 30 -74 57 -158z
m-1623 -1073 c32 -238 6 -452 -77 -624 -33 -70 -56 -101 -127 -170 -103 -102
-177 -142 -358 -194 -438 -126 -982 -160 -1391 -86 -58 11 -107 18 -109 16 -6
-6 235 -109 322 -138 112 -37 257 -71 400 -95 139 -23 600 -26 735 -5 209 33
384 91 534 177 44 25 81 45 83 45 8 0 1 -89 -13 -158 -20 -98 -62 -203 -114
-285 -52 -83 -169 -194 -255 -242 -364 -204 -1024 -158 -1900 130 -47 16 232
-144 360 -205 323 -156 560 -225 865 -251 185 -16 615 -17 709 -1 40 7 76 10
79 8 10 -11 -55 -104 -126 -178 -169 -177 -381 -267 -668 -284 -230 -14 -579
70 -1006 242 -105 42 -113 44 -125 28 -7 -10 -13 -23 -13 -28 1 -16 205 -139
385 -232 175 -90 342 -159 478 -198 107 -31 406 -93 500 -103 37 -5 67 -12 66
-18 -4 -22 -139 -119 -224 -160 -145 -70 -300 -94 -487 -76 -267 26 -512 100
-748 228 -122 66 -219 133 -349 241 -63 53 -111 89 -106 81 5 -8 48 -66 95
-129 230 -304 481 -462 885 -554 124 -28 297 -56 350 -56 46 0 44 -14 -5 -45
-103 -65 -239 -97 -415 -97 -234 -1 -351 26 -552 123 -160 78 -314 180 -411
273 -95 91 -118 128 -108 180 l7 37 82 -73 c261 -234 323 -266 120 -63 -164
165 -209 222 -190 241 3 3 74 -64 158 -149 175 -175 274 -252 415 -324 136
-69 167 -76 62 -13 -125 76 -173 122 -361 349 -94 113 -198 232 -232 266 -58
59 -63 67 -83 146 -11 46 -19 85 -18 87 2 1 40 -22 84 -53 135 -93 307 -192
502 -288 169 -84 352 -166 338 -151 -4 3 -62 36 -131 73 -275 151 -519 315
-634 429 -108 107 -184 232 -140 232 6 0 50 -30 97 -67 474 -369 848 -605
1155 -726 139 -55 193 -58 62 -3 -261 108 -524 284 -1027 687 -382 306 -513
417 -529 446 -18 36 -41 123 -32 123 4 0 23 -12 42 -26 91 -68 306 -179 684
-352 308 -141 449 -200 612 -256 131 -44 342 -101 349 -93 2 2 -49 21 -113 42
-309 98 -662 260 -883 405 -165 108 -316 230 -286 230 2 0 59 -28 127 -63 263
-134 861 -362 1119 -427 232 -58 495 -88 660 -74 l95 8 -95 8 c-140 11 -345
45 -499 83 -234 58 -389 117 -792 303 -390 180 -505 242 -774 420 -197 131
-304 192 -334 192 -14 0 -25 23 -50 110 -73 255 -116 335 -253 476 l-50 52 33
63 c51 96 156 197 256 247 135 66 200 77 478 77 288 0 357 -8 855 -94 254 -43
435 -56 617 -42 424 33 825 151 1058 312 87 60 173 141 212 201 l28 41 11 -40
c7 -22 20 -99 29 -169z m-5180 7 c265 -47 476 -112 853 -263 251 -100 411
-176 517 -246 142 -94 332 -300 386 -417 42 -93 199 -649 186 -661 -2 -2 -22
12 -44 31 -32 27 -46 50 -64 103 -52 161 -172 480 -194 517 -38 65 -140 180
-218 246 -168 142 -445 302 -657 377 -359 129 -674 178 -1215 189 -307 6 -439
-7 -532 -52 -56 -28 -145 -117 -178 -178 l-20 -37 111 -334 112 -334 -13 -53
c-8 -30 -16 -76 -20 -102 -7 -51 -10 -54 -121 -97 -22 -9 -43 60 -256 818 -9
34 -38 45 -38 14 0 -9 14 -64 30 -122 35 -121 35 -121 16 -114 -18 7 -29 -11
-21 -36 8 -26 24 -26 33 0 6 15 31 -61 90 -267 83 -293 90 -323 72 -323 -5 0
-10 7 -10 15 0 9 -9 15 -21 15 -17 0 -20 -4 -15 -23 5 -22 -6 -29 -212 -114
-188 -79 -218 -89 -225 -74 -14 30 -150 546 -151 573 0 15 -9 33 -18 40 -9 7
-23 30 -31 50 l-15 37 62 73 c146 170 287 284 404 327 65 23 67 25 128 170 28
66 99 133 185 174 104 50 219 77 429 101 19 2 152 3 295 1 213 -2 282 -6 380
-24z m12 -762 c121 -13 257 -47 359 -90 l79 -33 -40 -8 c-22 -5 -168 -33 -325
-64 -332 -65 -832 -173 -850 -184 -10 -6 -7 -34 14 -121 14 -63 26 -119 26
-126 0 -18 -26 -5 -113 57 l-77 55 5 58 c15 142 85 279 171 334 88 56 278 110
444 126 79 8 217 6 307 -4z m7229 -257 c-59 -455 -258 -759 -601 -923 -214
-102 -408 -140 -760 -146 -270 -6 -454 8 -715 50 -144 24 -140 21 -125 82 l8
30 -41 -39 -40 -38 -54 12 c-208 47 -309 73 -301 79 4 4 28 13 53 20 25 7 82
31 127 53 l82 40 193 -23 c251 -29 645 -32 807 -6 57 9 105 18 107 19 1 2
-118 3 -264 4 -147 0 -319 6 -382 13 -127 14 -303 47 -332 62 -17 9 -16 13 16
50 l34 40 528 3 c571 3 605 5 833 62 100 25 266 82 259 90 -2 2 -46 -5 -98
-16 -213 -44 -351 -55 -665 -54 -212 0 -347 5 -460 18 -176 19 -285 33 -290
38 -2 2 11 43 28 91 l32 87 240 -6 c824 -22 1437 129 1730 425 l60 60 3 -29
c2 -16 -4 -82 -12 -148z m-6263 129 c22 -23 13 -195 -18 -321 -51 -209 -168
-525 -206 -557 -41 -33 -756 -104 -1064 -106 -212 -1 -218 2 -258 97 -16 38
-25 72 -20 77 4 4 97 30 205 57 l197 49 12 -29 c23 -56 30 -58 168 -58 125 0
363 19 529 42 l82 11 30 61 c87 183 138 440 95 476 -35 29 -411 -30 -880 -138
l-120 -28 3 -37 c2 -20 1 -37 -3 -37 -4 0 -90 -13 -192 -30 -101 -16 -193 -30
-203 -30 -15 0 -23 19 -43 107 -14 59 -24 110 -21 112 16 16 880 197 1174 246
324 53 504 65 533 36z m452 -445 c152 -73 423 -269 516 -374 47 -53 126 -224
208 -450 100 -276 146 -511 122 -624 -14 -66 -74 -141 -146 -184 -27 -15 -47
-36 -54 -54 -5 -16 -18 -185 -27 -375 -14 -280 -15 -378 -7 -527 l11 -183 -30
-65 c-23 -48 -53 -87 -117 -150 -136 -135 -264 -197 -493 -241 -186 -35 -283
-13 -359 83 -88 112 -89 210 -3 518 170 613 206 766 225 953 28 275 -54 523
-214 645 -203 156 -604 260 -1277 332 -235 25 -294 36 -343 63 -37 21 -57 60
-57 112 0 29 -19 45 -52 45 -24 0 -28 4 -28 29 0 34 31 77 51 69 8 -3 22 -28
31 -55 27 -76 58 -116 103 -131 52 -18 442 -11 675 12 244 25 568 66 595 76
32 12 99 151 160 329 25 74 47 137 49 139 7 6 73 -118 106 -199 40 -96 72
-220 110 -427 46 -249 60 -282 232 -562 186 -302 236 -375 309 -451 125 -130
213 -120 295 36 59 111 78 192 71 313 -11 213 -109 368 -377 598 -228 196
-376 360 -438 484 -33 67 -37 171 -9 234 15 34 20 38 44 32 16 -4 69 -26 118
-50z m-2288 -26 c45 -34 95 -65 110 -69 21 -6 151 11 449 59 315 50 426 64
447 57 34 -11 67 -52 67 -82 0 -53 -15 -59 -450 -170 -228 -58 -426 -110 -440
-116 -36 -13 -48 -37 -60 -116 -18 -124 -21 -133 -38 -142 -20 -11 -869 -171
-906 -171 -51 0 -79 40 -151 218 -48 121 -66 176 -62 194 6 22 50 43 384 183
208 86 407 170 443 185 97 42 113 40 207 -30z m227 -486 c3 -9 6 -30 6 -48 0
-81 74 -116 295 -140 711 -78 1010 -142 1260 -269 308 -157 395 -441 288 -952
-23 -111 -58 -245 -193 -730 -27 -99 -53 -209 -56 -245 -8 -83 9 -165 46 -224
38 -60 14 -49 -56 26 -61 64 -84 105 -84 149 0 17 20 89 44 158 94 271 134
497 143 802 6 231 -4 353 -43 487 -47 162 -107 249 -224 327 -169 112 -404
190 -1027 341 -269 64 -404 104 -434 127 -27 21 -51 110 -44 162 7 43 9 45 40
45 21 0 35 -6 39 -16z m4202 -29 c192 -39 389 -65 549 -71 145 -6 155 -7 290
-52 l140 -47 -70 -3 c-83 -4 -390 14 -490 29 -95 14 -243 52 -362 92 -94 33
-195 74 -182 76 4 1 60 -10 125 -24z m-4331 -158 c7 -21 20 -46 28 -55 8 -9
27 -70 43 -135 15 -66 33 -125 39 -132 5 -7 69 -38 140 -70 221 -97 495 -257
722 -421 124 -90 192 -148 123 -106 -381 237 -531 319 -747 412 l-228 98 -3
-105 c-1 -58 -1 -107 1 -109 1 -2 55 -19 119 -38 226 -69 458 -175 708 -325
142 -86 430 -278 430 -287 0 -6 -27 8 -250 129 -454 245 -573 293 -840 337
-174 28 -176 28 -184 -16 -9 -43 -23 -49 -83 -35 l-48 12 -1 102 c-2 112 -24
233 -105 557 -26 107 -46 197 -43 200 9 9 108 28 137 27 24 -2 31 -9 42 -40z
m-250 -27 c8 0 15 8 15 17 0 49 23 -25 73 -232 79 -327 90 -388 91 -495 1 -78
-2 -95 -14 -95 -9 0 -15 9 -15 25 0 33 -32 40 -37 8 -2 -13 -8 -22 -13 -21
-166 26 -321 23 -401 -7 -15 -6 -28 -9 -29 -8 0 2 -16 77 -33 168 -18 91 -55
257 -83 369 -27 112 -47 206 -44 209 3 3 108 24 233 47 184 34 229 39 235 28
4 -7 15 -13 22 -13z m6093 -156 c158 -48 408 -108 574 -139 409 -74 842 -72
1091 5 33 11 63 17 65 15 9 -9 -78 -143 -141 -216 -234 -273 -589 -419 -1022
-419 -137 0 -323 20 -470 50 -215 44 -614 154 -630 174 -5 6 -18 10 -28 8 -21
-4 -387 117 -387 128 0 4 33 10 73 13 39 4 118 18 175 32 l103 26 122 -30
c301 -75 516 -110 712 -116 l140 -4 -117 13 c-217 26 -391 61 -614 126 -175
51 -168 46 -100 83 l58 32 332 -66 c437 -88 526 -99 799 -98 296 1 379 12 162
22 -309 13 -597 55 -837 122 -108 31 -320 95 -330 102 -10 6 124 172 140 173
7 0 65 -16 130 -36z m-1578 -283 c74 -23 187 -53 250 -67 97 -22 135 -37 247
-96 73 -39 131 -73 129 -76 -6 -5 -164 31 -281 65 -122 35 -277 98 -410 167
-124 64 -122 64 65 7z m-4461 -387 c173 -25 390 -86 820 -229 428 -142 677
-237 851 -325 102 -51 234 -132 245 -151 19 -29 -19 -21 -133 28 -612 264
-1176 467 -1607 579 -172 44 -389 84 -457 84 -21 0 -38 4 -38 9 0 23 181 26
319 5z m3974 -90 c13 -23 -65 21 -95 54 -22 23 -20 23 31 -6 30 -17 59 -38 64
-48z m1606 7 c370 -164 822 -268 1235 -284 l59 -2 -47 -52 c-58 -64 -189 -164
-265 -202 -136 -68 -251 -91 -463 -91 -378 0 -752 96 -1085 278 -74 40 -82 48
-77 69 6 21 3 23 -35 23 -31 0 -55 9 -93 35 -33 22 -46 36 -37 39 8 2 60 7
115 10 l102 6 93 -52 c88 -48 261 -128 277 -128 4 0 -34 22 -83 48 -95 50
-139 78 -193 124 -29 25 -31 29 -15 35 10 3 33 12 52 19 18 8 40 14 47 14 8 0
63 -22 123 -49 217 -98 515 -177 700 -186 l86 -5 -89 15 c-213 35 -461 118
-639 214 l-109 58 36 22 c20 13 60 42 88 67 29 24 55 44 57 44 3 0 75 -31 160
-69z m-5709 33 c381 -61 990 -261 1710 -562 151 -63 288 -119 303 -126 28 -11
28 -13 22 -64 -7 -60 -45 -221 -76 -324 l-19 -66 -156 74 c-366 175 -662 298
-954 396 -429 144 -780 222 -1065 236 l-130 7 1 145 c0 173 11 220 65 273 l39
39 82 -7 c46 -3 126 -13 178 -21z m3354 -70 c11 -44 120 -329 179 -469 187
-443 383 -822 592 -1142 52 -78 91 -144 87 -147 -3 -3 -15 -6 -28 -6 -18 0
-35 22 -90 118 -37 64 -122 209 -189 322 -379 638 -462 813 -609 1286 -4 14 1
30 15 48 24 30 34 28 43 -10z m191 -189 c162 -259 291 -441 378 -530 l88 -90
-60 74 c-133 162 -297 439 -274 462 6 6 16 9 21 5 5 -3 50 -65 100 -138 68
-99 124 -167 224 -267 118 -118 212 -200 258 -226 8 -4 -5 10 -30 31 -183 158
-299 300 -414 507 -21 37 -34 67 -30 67 4 0 54 -23 110 -51 l102 -51 58 -95
c173 -286 303 -410 585 -557 69 -36 116 -67 110 -71 -7 -4 -62 -9 -124 -12
-316 -16 -597 87 -826 303 -77 73 -80 77 -146 226 -67 153 -196 471 -210 518
-11 37 3 19 80 -105z m1035 75 c52 -11 109 -20 127 -20 24 0 37 -8 53 -31 12
-16 20 -32 17 -35 -6 -6 -246 45 -269 57 -19 10 -44 49 -31 49 4 0 51 -9 103
-20z m-4605 -291 c380 -53 843 -191 1325 -394 214 -90 609 -273 629 -291 4 -3
-19 -64 -24 -64 -2 0 -72 32 -157 71 -390 181 -984 402 -1357 505 -239 66
-378 93 -523 105 -71 5 -144 15 -161 23 -39 16 -71 51 -62 66 8 14 140 5 330
-21z m5018 -32 c140 -121 235 -179 402 -245 115 -46 303 -100 458 -134 59 -12
107 -25 107 -29 0 -8 -136 -44 -235 -63 -130 -23 -242 -28 -375 -16 -421 39
-754 175 -1015 415 l-50 46 34 -5 c18 -3 77 -6 131 -6 l97 0 79 -66 c43 -36
88 -70 99 -76 11 -6 0 7 -25 28 -25 22 -63 55 -84 75 l-40 36 57 7 56 7 128
-84 c112 -74 257 -160 243 -145 -3 3 -59 42 -125 87 -119 80 -185 133 -185
149 0 5 26 16 58 26 31 10 68 24 82 32 14 7 29 13 33 14 5 0 37 -24 70 -53z
m-5043 -91 c0 -6 -32 -51 -71 -100 l-72 -88 -56 6 c-31 3 -88 8 -128 12 l-72
6 83 97 84 96 116 -9 c73 -6 116 -13 116 -20z m173 -20 c149 -33 312 -77 477
-131 155 -51 284 -119 495 -260 138 -93 360 -263 352 -271 -2 -2 -71 35 -153
82 -427 246 -660 346 -1036 444 l-87 23 -55 -48 -56 -48 -97 16 c-53 9 -98 18
-100 20 -3 4 137 197 144 197 2 0 54 -11 116 -24z m-378 -201 c336 -39 615
-110 939 -237 162 -64 487 -227 666 -335 186 -113 385 -255 384 -275 -1 -14
-90 -138 -167 -232 l-24 -30 -79 70 c-323 284 -660 462 -1231 648 -312 102
-583 162 -841 187 -72 7 -138 16 -145 21 -9 5 -7 16 8 43 33 63 107 112 208
140 68 18 125 18 282 0z m-390 -236 c94 -10 114 -14 104 -23 -31 -28 -315
-206 -323 -202 -6 3 -48 20 -93 38 -45 18 -82 35 -82 38 0 3 57 42 127 88 87
56 133 80 147 77 11 -3 65 -10 120 -16z m294 -40 l74 -13 -44 -39 c-24 -22
-39 -42 -34 -44 6 -2 74 -34 150 -72 224 -109 347 -195 519 -361 128 -124 200
-209 301 -359 74 -109 173 -291 158 -291 -5 1 -35 35 -67 76 -180 231 -454
508 -591 599 -104 69 -309 168 -489 235 l-139 52 -78 -35 -77 -35 -66 36 c-36
20 -66 40 -66 44 0 4 75 56 168 117 109 72 174 109 187 106 11 -2 53 -10 94
-16z m-674 -160 c114 -38 350 -161 511 -267 340 -224 833 -622 1110 -897 102
-101 194 -207 194 -223 0 -10 -44 -37 -224 -141 l-155 -90 -90 114 c-564 711
-1317 1284 -1785 1357 -42 6 -76 15 -76 20 0 12 78 66 143 99 123 63 241 71
372 28z m4263 -139 c108 -198 297 -378 488 -466 134 -63 299 -83 436 -55 51
11 62 10 103 -8 163 -72 325 -399 342 -686 12 -217 -60 -435 -173 -521 l-37
-29 -291 -7 c-160 -3 -572 -11 -916 -17 -344 -6 -1255 -23 -2024 -37 -770 -14
-1409 -23 -1420 -21 -26 4 -25 5 129 52 248 76 547 208 735 324 382 237 817
645 1125 1056 86 114 205 296 212 323 7 30 16 28 47 -13 66 -86 193 -157 321
-180 116 -20 200 -19 310 4 116 25 206 62 335 140 122 73 179 119 211 166 13
19 26 35 29 35 3 0 20 -27 38 -60z m-4652 -55 c33 -7 86 -24 118 -36 69 -25
73 -19 -79 -114 -60 -38 -112 -70 -114 -72 -3 -2 1 -9 7 -15 22 -22 14 -82
-17 -126 -57 -78 -176 -141 -424 -223 -266 -88 -445 -134 -516 -132 -35 1 -67
5 -72 10 -5 5 40 21 109 37 214 52 577 182 754 272 50 25 78 64 78 109 0 69
-67 158 -133 176 -22 6 -37 12 -35 14 7 7 243 113 253 114 6 0 37 -6 71 -14z
m328 -127 c122 -65 297 -239 532 -533 132 -165 332 -435 321 -435 -2 0 -65 71
-139 158 -181 211 -375 411 -473 487 -110 85 -348 243 -378 250 -15 4 -37 0
-56 -9 -40 -21 -54 -74 -45 -165 9 -93 -5 -129 -73 -191 -90 -82 -300 -169
-523 -214 -85 -18 -85 -18 -229 8 -79 14 -146 28 -149 30 -2 3 16 10 39 16
110 29 411 122 480 149 242 94 355 193 347 304 l-3 41 120 73 c66 40 126 73
134 73 7 0 50 -19 95 -42z m-589 -21 c68 -39 103 -127 74 -191 -29 -63 -572
-267 -893 -336 l-99 -21 -231 36 c-211 33 -326 63 -326 85 0 4 64 24 143 45
326 87 800 243 1077 354 144 57 193 63 255 28z m-1454 -483 c40 -20 105 -34
303 -65 417 -65 854 -144 1380 -250 587 -118 830 -177 930 -223 208 -96 426
-303 472 -449 5 -17 3 -19 -20 -15 -16 3 -33 0 -41 -9 -17 -16 -63 -33 -201
-73 -122 -36 -121 -36 -129 -9 -10 32 -74 98 -114 119 -20 10 -67 27 -106 38
-323 96 -1593 342 -2354 458 -207 31 -227 36 -260 62 -26 22 -38 42 -49 83
-17 67 -10 117 28 196 24 52 98 163 107 163 2 0 27 -12 54 -26z m-171 -444 c0
-5 -5 -10 -11 -10 -5 0 -7 5 -4 10 3 6 8 10 11 10 2 0 4 -4 4 -10z m11 -236
c89 -93 317 -205 593 -293 135 -43 206 -49 841 -63 433 -9 623 -9 895 1 190 6
360 14 378 18 28 5 37 0 72 -35 48 -47 52 -77 13 -86 -16 -4 -453 -15 -973
-26 l-945 -19 -95 21 c-371 79 -749 306 -819 491 -14 37 -2 34 40 -9z m6669
-520 c120 -29 213 -84 410 -240 347 -275 525 -427 675 -578 205 -207 254 -294
255 -451 0 -104 -14 -151 -59 -196 -73 -74 -189 -64 -464 41 -445 168 -775
238 -1070 227 -219 -8 -272 -26 -642 -221 -162 -85 -230 -101 -415 -100 -202
0 -272 20 -600 167 -311 139 -533 185 -758 158 -135 -17 -234 -51 -447 -157
-222 -110 -305 -140 -429 -155 -117 -15 -295 -5 -400 22 -44 11 -209 63 -366
114 -392 128 -450 140 -670 140 -212 -1 -275 -14 -690 -141 -363 -112 -411
-124 -497 -124 -137 0 -229 54 -285 167 -29 59 -33 76 -32 143 2 127 59 235
173 326 87 71 278 263 444 447 124 138 155 167 172 162 11 -3 96 -12 188 -20
93 -7 171 -16 174 -19 5 -5 -78 -95 -461 -506 -81 -88 -119 -136 -126 -162
-20 -70 9 -116 78 -125 46 -6 155 23 932 247 283 81 564 162 623 179 82 23
119 39 152 65 60 50 105 121 105 166 l0 37 71 7 71 7 54 -56 c35 -37 76 -67
121 -88 65 -31 73 -32 188 -31 99 1 156 8 320 42 332 68 1010 217 1535 337
453 104 518 116 765 146 174 21 346 35 485 39 250 9 331 5 420 -16z m-1981
-158 c-6 -6 -586 -135 -919 -205 -563 -118 -660 -130 -759 -92 -55 20 -121 67
-121 85 0 8 159 30 508 70 279 32 669 77 867 101 349 41 433 49 424 41z
m-4153 -60 c55 -14 125 -34 155 -46 29 -12 65 -26 78 -31 l24 -10 -22 -23 -23
-24 -76 28 c-126 46 -233 64 -377 64 -235 0 -396 -63 -545 -213 -93 -94 -144
-179 -177 -301 -27 -98 -25 -337 5 -445 63 -234 175 -418 368 -605 191 -185
405 -301 654 -356 113 -25 322 -22 425 5 252 66 429 234 504 476 22 70 25 100
26 235 l0 155 31 3 c29 3 32 1 38 -38 25 -159 14 -306 -33 -440 -38 -109 -84
-182 -166 -265 -98 -100 -205 -159 -365 -201 -92 -25 -325 -25 -440 -1 -311
66 -590 234 -815 490 -382 434 -444 1010 -143 1332 115 123 252 197 425 230
115 22 319 13 449 -19z m7008 19 c540 -94 1015 -527 1158 -1055 19 -72 23
-110 23 -250 0 -145 -3 -174 -23 -240 -64 -204 -188 -353 -368 -440 -574 -281
-1415 141 -1693 848 l-21 53 35 -3 c35 -3 37 -6 69 -85 115 -280 361 -544 642
-690 431 -223 916 -168 1139 130 149 197 187 435 115 709 -87 331 -358 657
-687 826 -195 100 -334 134 -554 136 -154 2 -156 2 -188 29 -31 26 -31 27 -9
31 87 19 254 20 362 1z m-7071 -110 c82 -14 247 -64 247 -74 0 -4 -33 -42 -73
-85 l-73 -80 -71 12 c-218 36 -407 -14 -539 -143 -176 -172 -205 -450 -74
-723 102 -213 257 -369 475 -477 136 -68 244 -95 377 -95 122 0 183 13 278 58
181 85 290 266 290 478 l0 81 93 20 c55 12 96 17 102 11 17 -15 18 -226 2
-303 -45 -212 -167 -371 -352 -460 -96 -46 -172 -65 -296 -72 -586 -34 -1197
489 -1270 1088 -12 104 0 233 31 323 66 192 214 344 402 412 119 43 306 55
451 29z m7168 -14 c450 -118 835 -490 946 -916 33 -128 37 -323 9 -425 -34
-125 -82 -208 -170 -295 -92 -92 -175 -141 -301 -177 -115 -33 -330 -32 -460
1 -373 96 -705 366 -876 715 -27 55 -49 106 -49 113 0 16 1 16 138 -13 l72
-15 37 -72 c169 -337 515 -567 852 -567 177 0 310 50 415 156 239 239 195 650
-105 978 -120 131 -314 246 -494 291 -55 14 -107 31 -116 38 -53 39 -245 201
-248 210 -6 17 264 1 350 -22z m-5916 -35 c138 -14 354 -32 480 -41 347 -24
355 -25 355 -39 0 -21 -76 -102 -107 -115 -68 -27 -1571 -451 -1600 -451 -23
0 -33 5 -33 15 0 18 7 25 338 382 229 246 257 273 285 273 18 0 145 -11 282
-24z m-1382 -292 l48 -79 -48 -40 c-183 -151 -259 -308 -232 -477 29 -184 170
-312 358 -325 95 -7 157 6 422 87 107 33 197 60 201 60 4 0 8 -10 10 -21 2
-16 22 -30 78 -55 51 -22 76 -39 78 -52 3 -21 -34 -129 -49 -137 -5 -3 -40 13
-79 35 -39 23 -77 40 -85 38 -7 -2 -43 -32 -80 -67 l-66 -64 46 -70 c37 -54
44 -72 33 -78 -21 -14 -77 -28 -152 -39 -82 -12 -86 -10 -110 66 -9 28 -22 58
-29 66 -11 14 -182 58 -226 58 -13 0 -22 -15 -34 -60 l-17 -60 -42 21 c-23 12
-66 37 -95 56 l-52 35 16 37 c41 95 44 80 -42 180 -43 50 -84 91 -90 91 -7 0
-34 -7 -61 -15 -27 -8 -56 -15 -65 -15 -18 0 -95 153 -85 169 3 5 29 12 56 16
27 4 52 11 55 16 5 8 -9 153 -20 205 -3 15 -24 29 -70 49 -36 15 -65 32 -65
38 0 28 35 129 46 134 6 2 35 -7 64 -22 101 -51 91 -53 160 36 l61 79 -45 58
c-25 32 -46 61 -46 64 0 14 169 69 195 64 6 -1 32 -38 58 -82z m7491 -4 c45
-22 91 -47 103 -57 21 -18 21 -19 5 -80 l-17 -63 55 -56 c30 -30 72 -69 93
-86 l38 -30 47 18 c26 11 50 20 53 22 17 8 128 -212 114 -226 -3 -3 -35 -10
-72 -17 l-68 -11 2 -59 c2 -33 6 -84 9 -113 l6 -53 79 -36 c79 -36 80 -37 73
-67 -8 -40 -45 -126 -53 -126 -4 0 -40 20 -81 44 l-75 43 -72 -65 c-40 -36
-73 -69 -73 -74 0 -5 18 -36 41 -69 22 -33 38 -66 36 -73 -3 -7 -23 -18 -46
-24 -46 -14 -171 -31 -186 -25 -5 2 -21 35 -35 75 l-26 72 -99 22 c-144 33
-141 34 -160 -31 -8 -30 -20 -55 -26 -55 -16 0 -119 56 -152 83 l-28 22 25 58
c15 32 26 60 26 62 0 3 -35 45 -77 93 -42 48 -78 89 -80 92 -2 2 -32 -4 -67
-13 -36 -9 -69 -17 -74 -17 -5 0 -24 28 -42 61 l-33 62 38 -7 c61 -12 283 -83
395 -127 214 -84 277 -101 376 -101 109 -1 161 19 216 80 48 53 62 104 62 232
1 183 -53 289 -250 490 -88 90 -114 123 -114 143 0 37 18 35 114 -13z m-3527
-632 c5 -7 20 -41 33 -76 26 -71 103 -209 162 -291 64 -87 234 -250 333 -317
229 -156 444 -226 690 -226 155 0 246 20 375 83 115 57 240 179 294 289 62
128 79 220 74 391 l-5 147 29 4 c16 3 31 2 33 -2 15 -24 27 -170 22 -270 -7
-138 -24 -207 -80 -320 -33 -69 -58 -102 -132 -175 -73 -74 -106 -99 -175
-133 -139 -67 -228 -87 -405 -86 -216 1 -381 43 -583 149 -143 75 -248 152
-373 275 -116 115 -165 178 -246 314 -43 74 -113 228 -113 251 0 11 58 4 67
-7z m-327 -85 c15 -103 8 -262 -14 -348 -27 -101 -98 -234 -166 -307 -139
-152 -325 -233 -560 -245 -348 -17 -714 140 -1005 432 -135 135 -218 248 -295
406 -42 86 -48 105 -35 107 24 5 65 -7 65 -19 0 -6 21 -51 46 -102 238 -474
775 -799 1238 -748 194 22 329 83 452 206 66 66 89 98 128 175 64 130 79 210
73 382 -2 76 -2 140 1 143 3 3 18 5 33 5 26 0 27 -2 39 -87z m522 41 c75 -24
78 -26 98 -70 32 -73 109 -183 184 -261 123 -130 260 -218 426 -274 121 -40
292 -51 404 -25 246 58 404 256 408 510 l1 78 51 23 c29 13 71 29 95 36 54 16
57 11 67 -100 8 -101 -13 -252 -47 -334 -266 -635 -1247 -520 -1714 202 -45
70 -115 216 -115 241 0 14 32 8 142 -26z m-638 -9 c12 -64 7 -243 -9 -312 -50
-215 -212 -395 -422 -468 -256 -89 -582 -39 -865 132 -149 90 -301 226 -397
357 -45 60 -124 195 -146 249 l-15 38 27 -7 c16 -4 69 -19 118 -35 88 -28 91
-30 115 -76 80 -152 269 -332 438 -417 29 -15 94 -41 145 -58 77 -26 112 -32
212 -35 196 -8 322 35 441 149 101 97 154 223 154 367 0 69 1 71 31 87 32 16
149 63 160 64 4 0 10 -16 13 -35z m852 -76 c72 -33 73 -41 2 -54 -35 -7 -37
-5 -57 34 -21 40 -24 51 -17 51 2 0 34 -14 72 -31z m-2371 -29 c14 -5 23 -14
20 -20 -11 -17 -44 -11 -55 10 -12 23 -4 25 35 10z m1208 -64 c75 -33 73 -24
35 -128 -11 -32 -25 -58 -30 -58 -5 0 -40 18 -77 40 -37 22 -74 40 -81 40 -8
0 -45 -30 -81 -66 l-67 -66 45 -70 c50 -77 49 -79 -17 -98 -49 -14 -170 -31
-180 -25 -4 3 -18 34 -31 70 -13 36 -28 70 -34 74 -15 13 -214 54 -229 48 -8
-3 -19 -28 -26 -56 -15 -63 -24 -64 -114 -8 -92 56 -95 62 -64 129 l25 54 -48
55 c-27 30 -49 57 -49 61 0 4 19 0 43 -8 133 -48 239 -64 412 -64 193 0 275
15 410 73 44 19 82 34 86 33 3 0 35 -14 72 -30z m2364 -1 c58 -26 62 -29 56
-54 -12 -51 -45 -131 -53 -131 -5 0 -42 20 -82 44 l-73 45 -25 -22 c-62 -53
-120 -112 -120 -121 0 -5 18 -38 41 -72 22 -35 38 -67 35 -72 -8 -13 -128 -41
-190 -44 l-48 -3 -28 74 -27 75 -99 22 c-144 33 -141 34 -159 -31 -9 -30 -22
-55 -28 -55 -18 0 -152 76 -167 95 -12 14 -10 24 14 72 30 62 35 49 -47 141
-22 24 -36 46 -34 49 3 3 36 -7 73 -22 148 -59 247 -78 409 -79 172 -1 250 16
390 84 44 21 85 37 90 35 6 -2 38 -15 72 -30z"/>
<path d="M9600 9269 c-66 -16 -361 -60 -533 -79 -319 -35 -510 -43 -922 -36
-483 8 -599 -3 -752 -75 -165 -78 -341 -278 -393 -448 -27 -87 -27 -92 12 -80
75 21 301 -36 748 -192 348 -120 444 -150 631 -193 242 -56 439 -86 589 -91
134 -4 134 -4 37 5 -54 5 -135 16 -180 25 -200 40 -546 152 -822 267 -93 38
-231 90 -305 115 -74 25 -137 47 -139 49 -17 16 221 -38 467 -106 328 -91 633
-147 972 -180 176 -17 636 -25 644 -11 5 8 -11 11 -56 11 -35 0 -137 7 -228
15 -492 45 -896 130 -1162 244 -379 162 -641 192 -927 107 -28 -8 -51 -13 -51
-10 0 9 222 112 288 134 149 49 372 72 867 90 154 5 339 17 410 25 152 17 337
46 332 52 -3 2 -58 -2 -123 -8 -165 -16 -654 -15 -854 2 -208 18 -359 16 -480
-6 -110 -20 -178 -44 -310 -109 l-95 -47 44 41 c114 105 336 188 603 225 62 8
216 20 343 25 224 9 414 29 660 71 255 43 581 117 695 158 57 20 52 25 -10 10z"/>
<path d="M3564 9109 c8 -39 9 -41 29 -34 21 9 7 59 -18 64 -15 3 -17 -2 -11
-30z"/>
<path d="M3456 9095 c-15 -12 -17 -18 -8 -27 14 -14 65 9 59 26 -6 17 -30 17
-51 1z"/>
<path d="M3360 9042 c-20 -16 -21 -19 -5 -32 14 -11 19 -11 37 7 11 12 17 26
14 32 -10 15 -20 14 -46 -7z"/>
<path d="M3266 8971 c-15 -16 -15 -19 -1 -31 13 -11 19 -11 32 3 15 15 12 47
-5 47 -5 0 -16 -8 -26 -19z"/>
<path d="M3185 8891 c-14 -29 -14 -32 0 -37 9 -4 22 1 30 12 18 24 18 29 1 43
-12 10 -18 7 -31 -18z"/>
<path d="M3641 8901 c-18 -12 -10 -65 12 -69 13 -3 17 4 17 32 0 38 -9 49 -29
37z"/>
<path d="M3666 8762 c-11 -18 7 -52 26 -52 14 0 18 5 14 16 -3 9 -6 22 -6 30
0 15 -25 19 -34 6z"/>
<path d="M3702 8642 c-19 -13 2 -64 23 -56 17 7 17 9 9 42 -7 24 -12 26 -32
14z"/>
<path d="M3732 8523 c2 -17 10 -29 21 -31 15 -3 18 2 15 25 -2 17 -10 29 -21
31 -15 3 -18 -2 -15 -25z"/>
<path d="M6296 5906 c-57 -21 -108 -67 -136 -122 -21 -41 -25 -62 -25 -134 0
-76 3 -92 33 -152 55 -113 156 -185 271 -195 108 -10 195 36 246 129 25 46 29
64 30 133 0 69 -4 89 -31 145 -58 122 -168 201 -289 207 -35 2 -76 -3 -99 -11z
m164 -47 c49 -12 123 -60 150 -99 89 -125 51 -352 -66 -390 -44 -15 -160 -16
-197 -1 -38 15 -125 98 -147 141 -41 82 -43 188 -4 259 53 99 128 124 264 90z"/>
<path d="M3744 8282 c-8 -5 3 -67 39 -212 75 -307 70 -291 86 -281 13 8 11 28
-12 138 -32 155 -87 363 -96 363 -3 0 -11 -4 -17 -8z"/>
<path d="M3671 8251 c-11 -7 -7 -33 22 -142 20 -74 43 -163 52 -199 35 -139
35 -140 55 -140 11 0 20 1 20 3 0 12 -121 461 -127 472 -5 9 -13 11 -22 6z"/>
<path d="M3576 8222 c-5 -8 62 -247 110 -395 20 -60 30 -77 43 -74 19 4 24
-19 -57 254 -61 202 -79 243 -96 215z"/>
<path d="M3503 8194 c-7 -3 14 -80 64 -232 42 -125 79 -231 84 -236 6 -6 13
-6 20 1 8 8 -11 75 -66 242 -43 127 -80 231 -84 230 -3 0 -11 -3 -18 -5z"/>
<path d="M3426 8141 c-7 -11 127 -408 143 -424 7 -7 14 -8 21 -1 7 7 -5 50
-34 130 -24 65 -56 161 -72 212 -25 84 -42 109 -58 83z"/>
<path d="M3353 8112 c-10 -6 -4 -35 26 -123 60 -179 112 -299 127 -299 21 0
17 19 -30 142 -24 62 -56 152 -72 201 -15 48 -31 87 -34 87 -3 0 -11 -4 -17
-8z"/>
<path d="M3276 8071 c-7 -11 17 -82 85 -252 46 -115 67 -146 82 -121 3 4 -17
61 -44 127 -27 66 -59 150 -71 188 -20 61 -38 81 -52 58z"/>
<path d="M3206 8051 c-3 -4 19 -71 48 -147 78 -201 93 -234 111 -234 8 0 15 4
15 10 0 5 -26 76 -59 157 -32 82 -65 165 -72 186 -12 35 -31 48 -43 28z"/>
<path d="M3150 8020 c-21 -13 115 -360 141 -360 11 0 19 2 19 4 0 6 -139 359
-143 362 -1 2 -9 -1 -17 -6z"/>
<path d="M3980 7591 c0 -33 11 -51 31 -51 22 0 22 -2 8 39 -12 34 -39 42 -39
12z"/>
<path d="M4023 7464 c-8 -4 -10 -17 -6 -37 7 -40 14 -48 32 -38 10 6 12 19 7
45 -7 36 -10 39 -33 30z"/>
<path d="M4040 7285 c0 -28 4 -35 20 -35 20 0 26 22 14 54 -12 30 -34 18 -34
-19z"/>
<path d="M4066 7143 c8 -45 15 -55 32 -44 22 13 5 81 -20 81 -16 0 -18 -5 -12
-37z"/>
<path d="M4103 7043 c-7 -3 -13 -18 -13 -34 0 -22 5 -29 20 -29 14 0 20 7 20
23 0 29 -12 45 -27 40z"/>
<path d="M9410 6410 c8 -5 20 -10 25 -10 6 0 3 5 -5 10 -8 5 -19 10 -25 10 -5
0 -3 -5 5 -10z"/>
<path d="M7070 4826 c-159 -43 -245 -143 -296 -342 -17 -68 -24 -124 -24 -189
0 -82 3 -99 28 -146 23 -45 37 -59 87 -84 l58 -30 276 -3 c210 -3 309 0 416
12 313 36 479 112 516 234 9 33 9 45 -6 76 -40 84 -236 225 -465 334 -275 132
-458 175 -590 138z m190 -75 c357 -120 666 -284 737 -390 24 -36 23 -66 -4
-107 -35 -54 -167 -111 -318 -136 -101 -16 -490 -14 -700 4 l-150 13 -20 40
c-52 105 1 385 95 504 47 59 142 111 204 111 23 0 93 -18 156 -39z"/>
<path d="M6214 4796 c-427 -111 -1328 -654 -1359 -820 -7 -33 -4 -41 18 -63
23 -23 36 -26 134 -33 355 -23 1038 48 1216 127 73 33 135 111 212 268 67 136
88 215 89 325 0 71 -4 93 -25 135 -45 89 -116 104 -285 61z m200 -146 c0 -69
-7 -152 -14 -185 -15 -73 -60 -175 -95 -217 -41 -49 -177 -159 -221 -179 -73
-33 -283 -67 -514 -84 -200 -13 -674 -34 -679 -30 -3 3 4 22 14 42 59 108 465
378 880 583 288 143 456 201 570 197 l60 -2 -1 -125z"/>
<path d="M721 4666 c-10 -11 -7 -18 11 -30 25 -18 58 -21 58 -7 0 5 -13 19
-29 30 -24 18 -31 19 -40 7z"/>
<path d="M862 4613 c4 -21 36 -29 51 -14 9 9 8 14 -3 21 -25 16 -52 12 -48 -7z"/>
<path d="M980 4580 c0 -16 7 -20 30 -20 32 0 42 23 14 34 -29 11 -44 6 -44
-14z"/>
<path d="M1112 4553 c2 -12 12 -18 28 -18 36 0 33 29 -3 33 -23 3 -28 0 -25
-15z"/>
<path d="M1236 4534 c-8 -21 -8 -21 27 -29 23 -6 27 -4 27 14 0 12 -4 21 -9
21 -5 0 -16 3 -24 6 -8 3 -17 -2 -21 -12z"/>
<path d="M1370 4506 c0 -13 20 -26 40 -26 4 0 10 9 13 20 4 17 0 20 -24 20
-18 0 -29 -5 -29 -14z"/>
<path d="M1477 4486 c-4 -9 3 -16 16 -20 41 -11 57 -7 57 14 0 16 -7 20 -34
20 -20 0 -36 -6 -39 -14z"/>
<path d="M1627 4482 c-8 -11 4 -27 26 -35 11 -4 20 -1 24 9 6 18 5 19 -24 28
-12 4 -24 3 -26 -2z"/>
<path d="M1740 4446 c0 -13 28 -26 58 -26 6 0 12 9 12 20 0 16 -7 20 -35 20
-23 0 -35 -5 -35 -14z"/>
<path d="M1890 4421 c0 -17 6 -21 36 -21 28 0 35 3 32 18 -2 11 -14 18 -36 20
-27 3 -32 0 -32 -17z"/>
<path d="M2010 4400 c0 -15 7 -20 25 -20 18 0 25 5 25 20 0 15 -7 20 -25 20
-18 0 -25 -5 -25 -20z"/>
<path d="M2127 4386 c-8 -19 1 -26 34 -26 30 0 47 25 23 34 -27 10 -52 7 -57
-8z"/>
<path d="M2257 4384 c-18 -18 -5 -34 28 -34 24 0 35 5 35 15 0 8 -6 15 -14 15
-8 0 -21 2 -28 5 -8 3 -17 2 -21 -1z"/>
<path d="M2392 4343 c2 -12 13 -18 33 -18 20 0 31 6 33 18 3 14 -4 17 -33 17
-29 0 -36 -3 -33 -17z"/>
<path d="M2522 4323 c2 -12 12 -18 28 -18 36 0 33 29 -3 33 -23 3 -28 0 -25
-15z"/>
<path d="M2642 4303 c2 -13 12 -18 33 -18 43 0 40 29 -3 33 -28 3 -33 0 -30
-15z"/>
<path d="M2765 4280 c-4 -7 -3 -16 3 -22 14 -14 47 -6 47 12 0 18 -40 26 -50
10z"/>
<path d="M2870 4261 c0 -12 6 -21 13 -21 6 0 22 -3 35 -6 18 -5 22 -2 22 15 0
14 -6 21 -19 21 -11 0 -26 3 -35 6 -12 4 -16 0 -16 -15z"/>
<path d="M3010 4225 c0 -18 48 -31 62 -17 16 16 0 32 -33 32 -19 0 -29 -5 -29
-15z"/>
<path d="M3140 4200 c0 -21 40 -38 59 -25 19 11 12 23 -20 34 -41 14 -39 14
-39 -9z"/>
<path d="M3277 4163 c-14 -13 -6 -30 20 -42 37 -17 52 7 20 31 -24 19 -31 21
-40 11z"/>
<path d="M3380 4092 c0 -10 13 -25 29 -35 27 -16 29 -16 35 -1 4 9 5 18 4 19
-60 41 -68 43 -68 17z"/>
<path d="M3497 4023 c-12 -11 -8 -20 19 -38 35 -23 56 -5 29 25 -18 20 -36 25
-48 13z"/>
<path d="M3611 3926 c-8 -10 -5 -18 13 -35 20 -19 25 -20 35 -7 14 17 8 31
-19 46 -13 7 -21 6 -29 -4z"/>
<path d="M3704 3829 c-3 -6 3 -21 15 -32 16 -16 23 -19 33 -9 9 9 7 16 -7 32
-20 23 -31 25 -41 9z"/>
<path d="M6697 3495 c-586 -88 -2032 -433 -3692 -881 -275 -75 -601 -163 -725
-196 -433 -116 -992 -276 -1005 -289 -22 -22 6 -15 556 145 273 79 346 95 469
103 177 11 315 -18 704 -148 373 -125 396 -130 579 -136 256 -9 341 12 619
152 93 47 217 102 276 122 99 34 118 37 252 41 230 7 377 -29 678 -164 299
-135 415 -166 607 -166 193 -1 303 33 531 162 235 133 338 163 559 164 295 1
500 -56 1068 -298 20 -9 37 -12 37 -7 0 11 -315 146 -470 201 -274 98 -542
142 -735 121 -182 -21 -253 -46 -480 -172 -77 -43 -171 -90 -210 -105 -142
-53 -300 -67 -461 -39 -117 21 -201 50 -412 144 -306 136 -415 167 -619 178
-218 11 -334 -19 -620 -162 -286 -142 -308 -148 -536 -153 -233 -5 -241 -3
-657 133 -326 108 -458 140 -620 153 l-95 7 200 53 c110 30 355 96 545 147
791 214 1922 502 2450 624 829 190 1271 272 1487 275 57 0 103 4 103 9 0 15
-231 4 -383 -18z"/>
<path d="M6980 3333 c-41 -4 -576 -120 -1474 -319 -695 -154 -739 -167 -783
-233 -29 -43 -29 -66 1 -96 42 -42 140 -59 451 -76 167 -10 442 -9 1343 3
l1133 15 41 29 c109 77 104 203 -14 341 -95 112 -277 241 -411 293 -62 25
-205 53 -240 48 -7 0 -28 -3 -47 -5z m238 -106 c187 -64 440 -276 472 -398 12
-45 -5 -90 -43 -111 -35 -20 -2233 -46 -2502 -29 -190 12 -337 30 -351 43 -25
26 72 63 283 108 103 23 481 106 838 185 558 124 951 210 1045 229 55 11 186
-3 258 -27z"/>
<path d="M1077 2526 c-69 -25 -97 -66 -97 -141 0 -144 168 -259 289 -197 152
77 71 321 -116 347 -21 3 -54 -1 -76 -9z m153 -60 c76 -50 106 -165 56 -219
-85 -92 -269 2 -269 138 0 45 19 81 55 102 35 20 111 10 158 -21z"/>
<path d="M1125 2436 c-37 -12 -41 -16 -49 -61 -9 -47 -8 -48 30 -81 35 -30 43
-33 84 -27 25 3 48 7 52 10 4 2 10 24 14 49 6 45 6 47 -37 85 -24 21 -46 38
-49 38 -3 -1 -23 -7 -45 -13z m82 -38 c52 -51 44 -101 -18 -113 -30 -5 -41 -2
-67 20 -47 40 -43 93 8 114 37 15 41 14 77 -21z"/>
<path d="M3420 2518 c-63 -33 -83 -65 -83 -132 0 -108 93 -205 206 -213 69 -6
115 19 145 77 29 57 28 94 -4 158 -30 61 -74 98 -140 118 -62 19 -72 18 -124
-8z m133 -32 c39 -17 92 -71 106 -109 21 -55 14 -96 -23 -133 -28 -28 -42 -34
-75 -34 -23 0 -56 6 -74 14 -43 17 -93 76 -108 125 -31 105 67 183 174 137z"/>
<path d="M3487 2438 c-41 -11 -57 -36 -57 -88 0 -21 10 -36 39 -59 35 -28 45
-31 80 -25 48 8 56 17 64 65 5 33 1 41 -37 78 -23 22 -44 41 -46 40 -3 -1 -22
-6 -43 -11z m76 -40 c34 -30 37 -36 31 -70 -6 -33 -10 -37 -46 -43 -35 -6 -43
-4 -69 21 -21 20 -29 37 -29 61 0 29 5 36 33 48 42 19 38 20 80 -17z"/>
<path d="M5794 2529 c-41 -12 -91 -69 -99 -112 -21 -109 82 -235 198 -245 172
-14 234 177 97 301 -31 28 -66 49 -94 56 -51 13 -59 13 -102 0z m121 -48 c50
-22 91 -69 106 -121 15 -49 6 -85 -31 -121 -88 -89 -275 30 -257 162 12 88 90
122 182 80z"/>
<path d="M5845 2438 c-47 -17 -55 -27 -55 -72 0 -35 6 -48 34 -75 31 -30 37
-32 80 -26 52 8 66 25 66 79 0 28 -8 41 -42 70 -23 20 -44 36 -47 35 -3 0 -19
-5 -36 -11z m77 -42 c32 -30 35 -37 29 -67 -6 -28 -12 -35 -43 -42 -32 -8 -42
-5 -73 19 -22 16 -34 33 -30 41 3 8 5 25 5 38 0 16 8 26 28 33 41 15 44 15 84
-22z"/>
<path d="M8146 2525 c-74 -26 -113 -94 -99 -169 34 -187 293 -255 358 -94 57
143 -114 317 -259 263z m119 -44 c73 -34 115 -95 115 -168 0 -27 -8 -43 -34
-69 -29 -29 -41 -34 -83 -34 -150 0 -245 200 -129 271 39 24 80 24 131 0z"/>
<path d="M8195 2438 c-47 -17 -55 -27 -55 -73 0 -38 5 -48 38 -75 31 -26 43
-30 72 -25 65 11 68 14 73 58 4 38 1 46 -37 85 -43 45 -45 46 -91 30z m79 -40
c35 -30 37 -36 31 -70 -6 -33 -11 -37 -46 -43 -32 -6 -44 -2 -68 17 -24 19
-30 31 -30 64 -1 38 2 42 32 52 17 5 35 10 38 11 3 1 23 -14 43 -31z"/>
</g>
</svg>
